<svg width="39" height="39" viewBox="0 0 39 39" fill="none" xmlns="http://www.w3.org/2000/svg">
<g clip-path="url(#clip0_855_7)">
<path d="M39 19.5C39 8.73068 30.2693 0 19.5 0C8.73068 0 0 8.73068 0 19.5C0 30.2693 8.73068 39 19.5 39C30.2693 39 39 30.2693 39 19.5ZM1.77273 19.5C1.77273 9.70923 9.70923 1.77273 19.5 1.77273C29.2908 1.77273 37.2273 9.70923 37.2273 19.5C37.2273 29.2908 29.2908 37.2273 19.5 37.2273C9.70923 37.2273 1.77273 29.2908 1.77273 19.5ZM20.4183 26.5324C20.4555 26.3853 20.4732 26.114 20.4732 25.717V25.0132L20.459 12.7867C21.122 13.2281 22.0155 13.634 23.1394 14.0028C24.2438 14.3804 24.7969 14.8679 24.7969 15.467C24.7969 15.8535 24.5806 16.3197 24.1481 16.8622L24.4938 17.4295C25.6354 16.3144 26.2062 15.343 26.2062 14.5151C26.2062 13.244 24.9955 12.2442 22.5721 11.5174C21.863 11.2958 21.3809 11.076 21.1291 10.8544C20.8756 10.6328 20.6434 10.2375 20.4307 9.66668L19.5886 9.70745V25.2082C18.6402 24.3892 17.6599 23.9779 16.6459 23.9779C15.522 23.9779 14.5576 24.1995 13.751 24.6409C12.9445 25.0823 12.542 25.6177 12.542 26.2435C12.542 27.7361 13.8273 28.4824 16.396 28.4824C17.5287 28.4824 18.447 28.2963 19.1525 27.9222C19.8599 27.5482 20.28 27.0855 20.4183 26.5324Z" fill="#272636"/>
</g>
<defs>
<clipPath id="clip0_855_7">
<rect width="39" height="39" fill="white"/>
</clipPath>
</defs>
</svg>
