<svg width="41" height="41" viewBox="0 0 41 41" fill="none" xmlns="http://www.w3.org/2000/svg">
<g clip-path="url(#clip0_860_12)">
<path d="M39 21.5C39 10.7307 30.2693 2 19.5 2C8.73068 2 0 10.7307 0 21.5C0 32.2693 8.73068 41 19.5 41C30.2693 41 39 32.2693 39 21.5ZM1.77273 21.5C1.77273 11.7092 9.70923 3.77273 19.5 3.77273C29.2908 3.77273 37.2273 11.7092 37.2273 21.5C37.2273 31.2908 29.2908 39.2273 19.5 39.2273C9.70923 39.2273 1.77273 31.2908 1.77273 21.5ZM20.4183 28.5324C20.4555 28.3853 20.4732 28.114 20.4732 27.717V27.0132L20.459 14.7867C21.122 15.2281 22.0155 15.634 23.1394 16.0028C24.2438 16.3804 24.7969 16.8679 24.7969 17.467C24.7969 17.8535 24.5806 18.3197 24.1481 18.8622L24.4938 19.4295C25.6354 18.3144 26.2062 17.343 26.2062 16.5151C26.2062 15.244 24.9955 14.2442 22.5721 13.5174C21.863 13.2958 21.3809 13.076 21.1291 12.8544C20.8756 12.6328 20.6434 12.2375 20.4307 11.6667L19.5886 11.7075V27.2082C18.6402 26.3892 17.6599 25.9779 16.6459 25.9779C15.522 25.9779 14.5576 26.1995 13.751 26.6409C12.9445 27.0823 12.542 27.6177 12.542 28.2435C12.542 29.7361 13.8273 30.4824 16.396 30.4824C17.5287 30.4824 18.447 30.2963 19.1525 29.9222C19.8599 29.5482 20.28 29.0855 20.4183 28.5324Z" fill="#272636"/>
</g>
<line x1="0.707107" y1="1.29289" x2="39.7071" y2="40.2929" stroke="black" stroke-width="2"/>
<defs>
<clipPath id="clip0_860_12">
<rect width="39" height="39" fill="white" transform="translate(0 2)"/>
</clipPath>
</defs>
</svg>
