<svg width="23" height="23" viewBox="0 0 23 23" fill="none" xmlns="http://www.w3.org/2000/svg">
<path d="M14.8542 5.27083C15.2354 5.27083 15.6011 5.42228 15.8706 5.69187C16.1402 5.96145 16.2917 6.32708 16.2917 6.70833V20.125C16.2917 20.5062 16.1402 20.8719 15.8706 21.1415C15.6011 21.411 15.2354 21.5625 14.8542 21.5625H4.3125C4.12372 21.5625 3.9368 21.5253 3.76239 21.4531C3.58799 21.3808 3.42952 21.275 3.29603 21.1415C3.16255 21.008 3.05666 20.8495 2.98442 20.6751C2.91218 20.5007 2.875 20.3138 2.875 20.125V6.70833C2.875 6.32708 3.02645 5.96145 3.29603 5.69187C3.56562 5.42228 3.93125 5.27083 4.3125 5.27083H14.8542ZM14.375 7.1875H4.79167V19.6458H14.375V7.1875ZM18.6837 1.4375C19.0412 1.43728 19.3859 1.57029 19.6507 1.81056C19.9154 2.05084 20.0811 2.38114 20.1154 2.737L20.1212 2.875V15.8058C20.1209 16.0501 20.0274 16.285 19.8597 16.4626C19.692 16.6402 19.4628 16.7471 19.219 16.7614C18.9752 16.7757 18.7351 16.6964 18.5477 16.5396C18.3604 16.3828 18.2401 16.1605 18.2112 15.9179L18.2045 15.8058V3.35417H8.625C8.39027 3.35414 8.16372 3.26796 7.98831 3.11198C7.8129 2.956 7.70084 2.74107 7.67338 2.50796L7.66667 2.39583C7.6667 2.16111 7.75287 1.93455 7.90885 1.75914C8.06483 1.58374 8.27976 1.47167 8.51288 1.44421L8.625 1.4375H18.6837Z" fill="#2C2C2C"/>
</svg>
