<svg width="37" height="37" viewBox="0 0 37 37" fill="none" xmlns="http://www.w3.org/2000/svg">
<path d="M26.6575 13.5227L17.4163 3.75293C16.9229 3.23317 16.0684 3.23317 15.5839 3.75293L11.646 7.91103L11.0029 7.30317L14.9408 3.14507C15.7689 2.27293 17.2313 2.27293 18.0505 3.14507L27.2917 12.9148L26.6575 13.5227Z" fill="#4B4B4B"/>
<path d="M24.5522 13.6195L9.54077 7.33835C9.38057 7.26934 9.20795 7.23383 9.03351 7.23399C8.85908 7.23415 8.68652 7.26999 8.52645 7.3393C8.36638 7.40861 8.22217 7.50993 8.1027 7.63702C7.98323 7.76412 7.89101 7.91431 7.83172 8.07835L5.84958 13.3729L5.02148 13.0645L7.00363 7.77002C7.21506 7.20621 7.6291 6.76573 8.17529 6.53669C8.72148 6.29883 9.32934 6.29883 9.87553 6.52788L24.8958 12.8091L24.5522 13.6195ZM26.3141 28.5164C26.0674 28.5164 25.8736 28.3226 25.8736 28.076V27.195C25.8736 26.9484 26.0674 26.7545 26.3141 26.7545C26.5608 26.7545 26.7546 26.9484 26.7546 27.195V28.076C26.7546 28.3226 26.5608 28.5164 26.3141 28.5164ZM26.3141 24.9926C26.0674 24.9926 25.8736 24.7988 25.8736 24.5522V23.6712C25.8736 23.4245 26.0674 23.2307 26.3141 23.2307C26.5608 23.2307 26.7546 23.4245 26.7546 23.6712V24.5522C26.7546 24.7988 26.5608 24.9926 26.3141 24.9926ZM26.3141 21.4688C26.0674 21.4688 25.8736 21.275 25.8736 21.0284V20.1474C25.8736 19.9007 26.0674 19.7069 26.3141 19.7069C26.5608 19.7069 26.7546 19.9007 26.7546 20.1474V21.0284C26.7546 21.275 26.5608 21.4688 26.3141 21.4688ZM26.3141 17.945C26.0674 17.945 25.8736 17.7512 25.8736 17.5045V16.6236C25.8736 16.3769 26.0674 16.1831 26.3141 16.1831C26.5608 16.1831 26.7546 16.3769 26.7546 16.6236V17.5045C26.7546 17.7512 26.5608 17.945 26.3141 17.945ZM21.416 19.0374H9.99887C9.7522 19.0374 9.55839 18.8436 9.55839 18.5969C9.55839 18.3503 9.7522 18.1564 9.99887 18.1564H21.416C21.6627 18.1564 21.8565 18.3503 21.8565 18.5969C21.8565 18.8436 21.6627 19.0374 21.416 19.0374ZM21.416 23.2043H9.99887C9.7522 23.2043 9.55839 23.0105 9.55839 22.7638C9.55839 22.5172 9.7522 22.3234 9.99887 22.3234H21.416C21.6627 22.3234 21.8565 22.5172 21.8565 22.7638C21.8565 23.0105 21.6627 23.2043 21.416 23.2043ZM21.416 27.3712H9.99887C9.7522 27.3712 9.55839 27.1774 9.55839 26.9307C9.55839 26.6841 9.7522 26.4903 9.99887 26.4903H21.416C21.6627 26.4903 21.8565 26.6841 21.8565 26.9307C21.8565 27.1774 21.6627 27.3712 21.416 27.3712Z" fill="#4B4B4B"/>
<path d="M32.8595 32.1635H4.14045C2.90712 32.1635 1.90283 31.1592 1.90283 29.9258V25.6444C1.90283 25.3978 2.09664 25.2039 2.34331 25.2039C3.76164 25.2039 4.90688 23.9794 4.90688 22.4642C4.90688 20.9842 3.73521 19.7244 2.34331 19.7244C2.09664 19.7244 1.90283 19.5306 1.90283 19.2839V15.0025C1.90283 13.7692 2.90712 12.7649 4.14045 12.7649H32.8595C34.0928 12.7649 35.0971 13.7692 35.0971 15.0025V19.2839C35.0971 19.5306 34.9033 19.7244 34.6566 19.7244C33.2383 19.7244 32.0931 20.9489 32.0931 22.4642C32.0931 23.9706 33.2471 25.2039 34.6566 25.2039C34.9033 25.2039 35.0971 25.3978 35.0971 25.6444V29.9258C35.0971 31.1592 34.0928 32.1635 32.8595 32.1635ZM2.78378 26.0585V29.9258C2.78378 30.6747 3.39164 31.2825 4.14045 31.2825H32.8595C33.6083 31.2825 34.2162 30.6747 34.2162 29.9258V26.0585C32.5247 25.8294 31.2121 24.3054 31.2121 22.473C31.2121 20.6318 32.5247 19.1166 34.2162 18.8875V15.0201C34.2162 14.2713 33.6083 13.6635 32.8595 13.6635H4.14045C3.39164 13.6635 2.78378 14.2713 2.78378 15.0201V18.8875C4.44878 19.1254 5.78783 20.667 5.78783 22.473C5.78783 24.3142 4.47521 25.8294 2.78378 26.0585Z" fill="#4B4B4B"/>
</svg>
