<svg width="35" height="35" viewBox="0 0 35 35" fill="none" xmlns="http://www.w3.org/2000/svg">
<g clip-path="url(#clip0_670_9)">
<path d="M25.1631 7.37598H9.74805C4.46387 7.37598 0 12.0142 0 17.5C0 22.9893 4.46387 27.624 9.75146 27.624H18.8535C19.4927 27.624 20.0088 27.1079 20.0088 26.4688C20.0088 25.8296 19.4927 25.3135 18.8535 25.3135H9.75146C5.71826 25.3135 2.31055 21.7349 2.31055 17.5C2.31055 13.2651 5.71826 9.68652 9.75146 9.68652H25.1528C29.2852 9.73096 32.6655 13.125 32.6929 17.2642C32.7373 21.3726 29.4287 24.7598 25.3203 24.8179C24.6811 24.8281 24.1719 25.3511 24.1821 25.9868C24.1924 26.626 24.7051 27.1113 25.3511 27.125C30.7275 27.0498 35.0547 22.6167 35 17.2437C34.9658 11.8604 30.5601 7.43408 25.1631 7.37598Z" fill="#4B4B4B"/>
<path d="M20.1421 14.5845C18.6416 14.5845 17.4214 15.8047 17.4214 17.3052C17.4214 18.8057 18.6416 20.0259 20.1421 20.0259C21.6426 20.0259 22.8628 18.8057 22.8628 17.3052C22.8628 15.8013 21.6426 14.5845 20.1421 14.5845ZM20.1421 18.1733C19.6602 18.1733 19.2705 17.7803 19.2705 17.3018C19.2705 16.8198 19.6636 16.4302 20.1421 16.4302C20.624 16.4302 21.0137 16.8232 21.0137 17.3018C21.0137 17.7837 20.624 18.1733 20.1421 18.1733ZM26.7559 20.0225C28.2563 20.0225 29.4731 18.8022 29.4731 17.3018C29.4731 15.8013 28.2529 14.5811 26.7524 14.5811C25.252 14.5811 24.0317 15.8013 24.0317 17.3018C24.0352 18.8022 25.2554 20.0225 26.7559 20.0225ZM26.7559 16.4302C27.2378 16.4302 27.6274 16.8232 27.6274 17.3018C27.6274 17.7837 27.2344 18.1733 26.7559 18.1733C26.2773 18.1733 25.8843 17.7803 25.8843 17.3018C25.8843 16.8198 26.2739 16.4302 26.7559 16.4302ZM9.94287 20.8975C10.582 20.8975 11.0981 20.3813 11.0981 19.7422V18.5459H12.2944C12.9336 18.5459 13.4497 18.0298 13.4497 17.3906C13.4497 16.7515 12.9336 16.2354 12.2944 16.2354H11.0981V15.0391C11.0981 14.3999 10.582 13.8838 9.94287 13.8838C9.30371 13.8838 8.7876 14.3999 8.7876 15.0391V16.2354H7.59131C6.95215 16.2354 6.43604 16.7515 6.43604 17.3906C6.43604 18.0298 6.95215 18.5459 7.59131 18.5459H8.7876V19.7422C8.7876 20.3779 9.30713 20.8975 9.94287 20.8975Z" fill="#4B4B4B"/>
</g>
<defs>
<clipPath id="clip0_670_9">
<rect width="35" height="35" fill="white"/>
</clipPath>
</defs>
</svg>
