<svg width="35" height="35" viewBox="0 0 35 35" fill="none" xmlns="http://www.w3.org/2000/svg">
<path d="M20.0902 31.78H10.2377C7.33269 31.78 4.95269 29.4175 4.95269 26.495V18.7075H1.99519C1.62769 18.7075 1.29519 18.48 1.17269 18.1475C1.05019 17.7975 1.13769 17.4125 1.41769 17.1675L16.9227 3.44749C17.2552 3.14999 17.7627 3.14999 18.0952 3.44749L33.6002 17.1675C33.8802 17.4125 33.9677 17.7975 33.8452 18.1475C33.7227 18.4975 33.3902 18.7075 33.0227 18.7075H30.0652V26.495C30.0652 28.315 29.1377 29.995 27.5977 30.975C27.1777 31.2375 26.6352 31.115 26.3902 30.695C26.1277 30.2925 26.2502 29.7325 26.6702 29.4875C27.1746 29.1722 27.5903 28.7337 27.8781 28.2131C28.166 27.6926 28.3164 27.1073 28.3152 26.5125V17.85C28.3152 17.36 28.7177 16.975 29.1902 16.975H30.7127L17.5002 5.28499L4.30519 16.9575H5.82769C6.31769 16.9575 6.70269 17.36 6.70269 17.8325V26.495C6.70269 28.4375 8.27769 30.0125 10.2202 30.0125H20.0727C20.5627 30.0125 20.9477 30.415 20.9477 30.8875C20.9652 31.3775 20.5802 31.78 20.0902 31.78ZM20.0727 31.78C19.5827 31.78 19.1977 31.3775 19.1977 30.905C19.1977 30.415 19.6002 30.03 20.0727 30.03C20.8077 30.03 21.3852 29.435 21.3852 28.7175V22.33C21.3852 21.595 20.7902 21.0175 20.0727 21.0175H14.9277C14.1927 21.0175 13.6152 21.6125 13.6152 22.33V26.4425C13.6152 26.9325 13.2127 27.3175 12.7402 27.3175C12.2677 27.3175 11.8652 26.915 11.8652 26.4425V22.33C11.8652 20.6325 13.2477 19.25 14.9452 19.25H20.0902C21.7877 19.25 23.1702 20.6325 23.1702 22.33V28.7C23.1527 30.3975 21.7702 31.78 20.0727 31.78Z" fill="#4B4B4B"/>
</svg>
