<svg width="72" height="72" viewBox="0 0 72 72" fill="none" xmlns="http://www.w3.org/2000/svg">
<circle cx="36" cy="36" r="36" fill="#FFBF59"/>
<circle cx="36" cy="36" r="34" fill="white"/>
<circle cx="36" cy="36" r="32" fill="#FFBF59"/>
<path d="M54.5937 29.3839C53.8467 27.3185 52.7676 25.3995 51.3809 23.6808C48.6172 20.2579 44.7598 17.8263 40.5068 16.8302V15.048C40.5068 13.8028 40.0186 12.6407 39.1348 11.7716C38.2656 10.922 37.1279 10.463 35.9219 10.4825C34.7354 10.5021 33.627 10.9806 32.792 11.8302C31.957 12.6798 31.498 13.8028 31.498 14.9894V16.8302C27.2451 17.8263 23.3877 20.2579 20.624 23.6808C19.2373 25.3995 18.1582 27.3185 17.4111 29.3839C16.6396 31.5226 16.249 33.7687 16.249 36.0587C16.249 36.5567 16.6543 36.962 17.1523 36.962H54.8574C55.3555 36.962 55.7607 36.5567 55.7607 36.0587C55.7559 33.7687 55.3603 31.5226 54.5937 29.3839ZM18.1289 34.3839C18.9785 25.2579 26.8301 18.1095 36 18.1095C45.1748 18.1095 53.0215 25.2579 53.8711 34.3839C53.8906 34.5792 53.8223 34.7794 53.6904 34.9259C53.5586 35.0724 53.3682 35.1554 53.168 35.1554H18.832C18.6318 35.1554 18.4414 35.0724 18.3096 34.9259C18.1777 34.7794 18.1094 34.5792 18.1289 34.3839ZM33.2998 16.4933V14.9894C33.2998 13.5001 34.5156 12.2892 36 12.2892C37.4893 12.2892 38.7002 13.5001 38.7002 14.9894V16.4933C37.7969 16.3663 36.8887 16.3077 36 16.3077C35.1162 16.3028 34.208 16.3663 33.2998 16.4933ZM54.8525 39.7159H17.1475C16.6494 39.7159 16.2441 40.1212 16.2441 40.6192C16.2441 41.1173 16.6494 41.5226 17.1475 41.5226H54.8477C55.3457 41.5226 55.751 41.1173 55.751 40.6192C55.751 40.1212 55.3506 39.7159 54.8525 39.7159Z" fill="#4B4B4B"/>
<path d="M20.7354 56.6885V56.667C20.7354 56.6598 20.7389 56.6527 20.7461 56.6455C20.7533 56.6312 20.764 56.6133 20.7783 56.5918C20.7926 56.5703 20.807 56.5596 20.8213 56.5596C20.7855 56.5452 20.7246 56.5094 20.6387 56.4521C20.5599 56.3877 20.5098 56.3376 20.4883 56.3018C20.4811 56.2874 20.4775 56.2767 20.4775 56.2695C20.4704 56.2624 20.4668 56.2516 20.4668 56.2373C20.4668 56.2015 20.4704 56.1693 20.4775 56.1406C20.4847 56.1048 20.5062 56.0762 20.542 56.0547C20.4202 56.0189 20.3558 55.9831 20.3486 55.9473C20.3486 55.9115 20.3307 55.8434 20.2949 55.7432C20.2949 55.736 20.2806 55.7217 20.252 55.7002C20.2305 55.6787 20.2161 55.668 20.209 55.668C20.2018 55.6536 20.1839 55.625 20.1553 55.582C20.1338 55.5391 20.123 55.5104 20.123 55.4961V55.4209C20.1087 55.4066 20.0801 55.3923 20.0371 55.3779C19.9941 55.3636 19.9655 55.3493 19.9512 55.335L19.9404 55.3027V55.2812C19.9404 55.2741 19.944 55.2669 19.9512 55.2598C19.9583 55.2454 19.9834 55.2311 20.0264 55.2168C20.0693 55.1953 20.098 55.181 20.1123 55.1738L20.1016 55.1416V55.0771C20.0944 55.0628 20.0765 55.0127 20.0479 54.9268C20.0192 54.8337 20.0013 54.7799 19.9941 54.7656V54.7119V54.6797C20.0013 54.6797 20.0085 54.651 20.0156 54.5938C20.0228 54.5365 20.0299 54.4756 20.0371 54.4111C20.0443 54.3467 20.0514 54.2858 20.0586 54.2285C20.0658 54.1712 20.0693 54.139 20.0693 54.1318V54.1104C20.0693 54.1032 20.0693 54.0996 20.0693 54.0996C20.0765 54.0996 20.0801 54.096 20.0801 54.0889L20.0586 54.0566C20.0443 54.0423 20.0049 54.0316 19.9404 54.0244C19.876 54.0101 19.8366 53.9958 19.8223 53.9814C19.8151 53.9814 19.8115 53.9743 19.8115 53.96V53.9385C19.8115 53.917 19.8151 53.9027 19.8223 53.8955C19.8438 53.8883 19.8939 53.8633 19.9727 53.8203C20.0586 53.7773 20.1087 53.7451 20.123 53.7236V53.251C20.123 53.2152 20.1159 53.1829 20.1016 53.1543C20.0944 53.1185 20.0693 53.0898 20.0264 53.0684L19.9619 53.2402C19.9118 53.1615 19.8796 53.0898 19.8652 53.0254C19.8581 52.9609 19.8509 52.8822 19.8438 52.7891C19.8438 52.7174 19.8473 52.6315 19.8545 52.5312C19.8688 52.4238 19.8831 52.32 19.8975 52.2197C19.9189 52.1195 19.9333 52.0264 19.9404 51.9404C19.9548 51.8545 19.9619 51.7936 19.9619 51.7578V51.7148C19.9619 51.7077 19.9548 51.6898 19.9404 51.6611C19.9333 51.6253 19.9225 51.5895 19.9082 51.5537C19.901 51.5107 19.8903 51.4749 19.876 51.4463C19.8688 51.4105 19.8652 51.389 19.8652 51.3818V51.3389C19.8652 51.3389 19.8617 51.3317 19.8545 51.3174V51.3066C19.8688 51.2923 19.8975 51.278 19.9404 51.2637C19.9834 51.2493 20.0085 51.235 20.0156 51.2207C20.0156 51.2207 20.0192 51.2028 20.0264 51.167C20.0407 51.1312 20.055 51.0918 20.0693 51.0488C20.0837 51.0059 20.098 50.9629 20.1123 50.9199C20.1266 50.8698 20.1374 50.8268 20.1445 50.791C20.1517 50.7767 20.1624 50.7373 20.1768 50.6729C20.1911 50.6012 20.2018 50.5583 20.209 50.5439C20.2161 50.5368 20.234 50.5439 20.2627 50.5654C20.2913 50.5798 20.3092 50.5869 20.3164 50.5869C20.3092 50.4723 20.3021 50.347 20.2949 50.2109C20.2949 50.0677 20.2985 49.9281 20.3057 49.792C20.3128 49.6559 20.3271 49.5234 20.3486 49.3945C20.3773 49.2656 20.4167 49.1546 20.4668 49.0615C20.4811 49.0472 20.5062 49.0078 20.542 48.9434C20.585 48.8717 20.61 48.8288 20.6172 48.8145C20.6172 48.8073 20.6172 48.7894 20.6172 48.7607C20.6172 48.7249 20.6136 48.6891 20.6064 48.6533C20.5993 48.6104 20.5957 48.5745 20.5957 48.5459C20.5957 48.5101 20.5957 48.4886 20.5957 48.4814C20.6029 48.4671 20.6243 48.4277 20.6602 48.3633C20.696 48.2917 20.7246 48.2451 20.7461 48.2236C20.7533 48.2165 20.7783 48.2057 20.8213 48.1914C20.8643 48.1699 20.8857 48.1556 20.8857 48.1484C20.8929 48.1413 20.9036 48.1234 20.918 48.0947C20.9323 48.0589 20.9466 48.0231 20.9609 47.9873C20.9824 47.9443 21.0003 47.9049 21.0146 47.8691C21.029 47.8333 21.0361 47.8118 21.0361 47.8047C21.0934 47.6973 21.1722 47.5791 21.2725 47.4502C21.3727 47.3141 21.4515 47.1924 21.5088 47.085C21.5732 46.9704 21.6162 46.8737 21.6377 46.7949C21.6663 46.709 21.6986 46.641 21.7344 46.5908C21.7773 46.5335 21.8382 46.487 21.917 46.4512C22.0029 46.4082 22.139 46.3724 22.3252 46.3438C22.3324 46.3438 22.3538 46.3438 22.3896 46.3438C22.4326 46.3366 22.4648 46.333 22.4863 46.333C22.5293 46.333 22.5794 46.3258 22.6367 46.3115C22.694 46.29 22.7477 46.2686 22.7979 46.2471C22.848 46.2256 22.8945 46.2113 22.9375 46.2041C22.9876 46.1898 23.0234 46.1898 23.0449 46.2041C23.0592 46.2113 23.0879 46.2399 23.1309 46.29C23.1738 46.3402 23.2025 46.3652 23.2168 46.3652C23.224 46.3724 23.2454 46.3617 23.2812 46.333C23.3242 46.3044 23.3529 46.2865 23.3672 46.2793H23.3994C23.4281 46.2793 23.4567 46.2972 23.4854 46.333C23.514 46.3617 23.5391 46.3939 23.5605 46.4297C23.582 46.4655 23.6035 46.4941 23.625 46.5156C23.6536 46.5371 23.6787 46.5371 23.7002 46.5156C23.8721 46.6159 24.0583 46.734 24.2588 46.8701C24.4593 46.999 24.6312 47.1458 24.7744 47.3105C24.7816 47.3177 24.7959 47.3499 24.8174 47.4072C24.8389 47.4574 24.8604 47.5146 24.8818 47.5791C24.9033 47.6364 24.9248 47.6937 24.9463 47.751C24.9678 47.8011 24.9821 47.8298 24.9893 47.8369C25.0465 47.9085 25.1146 47.9766 25.1934 48.041C25.2793 48.1055 25.3258 48.1878 25.333 48.2881V48.3203C25.3258 48.3275 25.3115 48.3454 25.29 48.374C25.2757 48.3955 25.2686 48.4098 25.2686 48.417C25.2614 48.4242 25.2614 48.4421 25.2686 48.4707C25.2757 48.4993 25.2793 48.5173 25.2793 48.5244C25.4082 48.5173 25.4906 48.5459 25.5264 48.6104C25.5693 48.6676 25.5944 48.7357 25.6016 48.8145C25.6087 48.8932 25.6123 48.9648 25.6123 49.0293C25.6195 49.0938 25.6517 49.1296 25.709 49.1367L25.623 49.2334C25.6947 49.2262 25.7412 49.237 25.7627 49.2656C25.7842 49.2943 25.7985 49.3301 25.8057 49.373C25.8057 49.3945 25.8057 49.4482 25.8057 49.5342C25.8057 49.6201 25.8021 49.7132 25.7949 49.8135C25.7949 49.9066 25.7878 49.9961 25.7734 50.082C25.7663 50.1608 25.752 50.2038 25.7305 50.2109C25.8379 50.2109 25.9167 50.2432 25.9668 50.3076C26.0241 50.3721 26.0635 50.4508 26.085 50.5439C26.1136 50.637 26.1315 50.7373 26.1387 50.8447C26.1458 50.945 26.1566 51.0309 26.1709 51.1025C26.1781 51.1097 26.1924 51.1383 26.2139 51.1885C26.2425 51.2314 26.2604 51.2565 26.2676 51.2637V51.2852C26.2676 51.2923 26.2712 51.2995 26.2783 51.3066V51.3496C26.2712 51.3568 26.2533 51.3747 26.2246 51.4033C26.2031 51.4248 26.1781 51.4499 26.1494 51.4785C26.1279 51.5072 26.1064 51.5358 26.085 51.5645C26.0635 51.5859 26.0527 51.6003 26.0527 51.6074C26.0456 51.6217 26.0456 51.6755 26.0527 51.7686C26.0671 51.8617 26.0814 51.9655 26.0957 52.0801C26.1172 52.1875 26.1351 52.2913 26.1494 52.3916C26.1637 52.4847 26.1709 52.5384 26.1709 52.5527C26.1637 52.5671 26.1387 52.5957 26.0957 52.6387C26.0527 52.6816 26.0277 52.7103 26.0205 52.7246C26.0133 52.7389 26.0133 52.7819 26.0205 52.8535C26.0348 52.918 26.042 52.9574 26.042 52.9717C26.042 52.9788 26.0277 53.0254 25.999 53.1113C25.9775 53.1901 25.9525 53.2832 25.9238 53.3906C25.8952 53.4909 25.863 53.5911 25.8271 53.6914C25.7913 53.7845 25.7627 53.8454 25.7412 53.874C25.7269 53.8812 25.7161 53.8919 25.709 53.9062C25.6947 53.9206 25.6875 53.9313 25.6875 53.9385L25.6768 53.9492C25.6768 53.9564 25.6803 54.0029 25.6875 54.0889C25.7018 54.1676 25.7126 54.2536 25.7197 54.3467C25.734 54.4398 25.7448 54.5257 25.752 54.6045C25.7663 54.6833 25.7734 54.7262 25.7734 54.7334C25.7663 54.7477 25.7412 54.7656 25.6982 54.7871C25.6624 54.8014 25.6374 54.8158 25.623 54.8301C25.6159 54.8372 25.6051 54.8659 25.5908 54.916C25.5765 54.959 25.5658 54.9876 25.5586 55.002C25.5514 55.0091 25.5299 55.027 25.4941 55.0557C25.4655 55.0771 25.4333 55.1022 25.3975 55.1309C25.3617 55.1595 25.3294 55.1882 25.3008 55.2168C25.2721 55.2383 25.2578 55.2526 25.2578 55.2598C25.2507 55.2669 25.2471 55.2848 25.2471 55.3135C25.2471 55.3421 25.2471 55.3779 25.2471 55.4209C25.2542 55.4567 25.2614 55.4925 25.2686 55.5283C25.2757 55.557 25.2793 55.5749 25.2793 55.582C25.2721 55.5892 25.2435 55.6035 25.1934 55.625C25.1504 55.6465 25.1253 55.6572 25.1182 55.6572C25.0967 55.6859 25.0609 55.7288 25.0107 55.7861C24.9678 55.8434 24.9176 55.9043 24.8604 55.9688C24.8031 56.0332 24.7493 56.0941 24.6992 56.1514C24.6491 56.2087 24.6133 56.248 24.5918 56.2695C24.5775 56.2767 24.5667 56.2803 24.5596 56.2803H24.5166C24.4593 56.2874 24.4128 56.2803 24.377 56.2588C24.3411 56.2301 24.3053 56.18 24.2695 56.1084C24.2767 56.1729 24.266 56.2194 24.2373 56.248C24.2158 56.2695 24.1836 56.2874 24.1406 56.3018C24.0977 56.3089 24.0511 56.3161 24.001 56.3232C23.958 56.3304 23.9222 56.3447 23.8936 56.3662C23.915 56.3662 23.9544 56.377 24.0117 56.3984C24.0762 56.4199 24.1156 56.4378 24.1299 56.4521V56.4629C24.1299 56.4701 24.1335 56.4772 24.1406 56.4844C24.1406 56.4987 24.1227 56.5273 24.0869 56.5703C24.0583 56.6061 24.0189 56.6455 23.9688 56.6885C23.9258 56.7314 23.8828 56.7744 23.8398 56.8174C23.7969 56.8532 23.7718 56.8711 23.7646 56.8711C23.7575 56.8711 23.736 56.8747 23.7002 56.8818C23.6715 56.8818 23.6393 56.8818 23.6035 56.8818C23.5677 56.8818 23.5319 56.8818 23.4961 56.8818C23.4674 56.8818 23.4495 56.8818 23.4424 56.8818C23.4281 56.8818 23.3887 56.8997 23.3242 56.9355C23.2669 56.9642 23.2311 56.9785 23.2168 56.9785C23.2025 56.9785 23.1488 56.9785 23.0557 56.9785C22.9697 56.9785 22.9196 56.9821 22.9053 56.9893C22.8981 56.9893 22.8838 57 22.8623 57.0215C22.8408 57.043 22.8265 57.0573 22.8193 57.0645L22.7871 57.0752H22.7656C22.7585 57.0752 22.7513 57.0716 22.7441 57.0645C22.737 57.0645 22.7298 57.0609 22.7227 57.0537C22.7227 57.0465 22.7155 57.0394 22.7012 57.0322C22.6868 57.0251 22.6761 57.0143 22.6689 57C22.6546 57.0358 22.6331 57.0537 22.6045 57.0537C22.583 57.0609 22.5544 57.0645 22.5186 57.0645C22.5114 57.0716 22.4935 57.0752 22.4648 57.0752H22.4326C22.4111 57.0752 22.3753 57.0716 22.3252 57.0645C22.2751 57.0573 22.2249 57.0501 22.1748 57.043C22.1247 57.0358 22.0781 57.0286 22.0352 57.0215C21.9922 57.0143 21.9635 57.0107 21.9492 57.0107C21.9421 57.0036 21.9134 56.9893 21.8633 56.9678C21.8203 56.9463 21.7952 56.9355 21.7881 56.9355C21.7738 56.9355 21.7487 56.9391 21.7129 56.9463C21.6771 56.9463 21.6341 56.9463 21.584 56.9463C21.541 56.9463 21.498 56.9463 21.4551 56.9463C21.4193 56.9463 21.3978 56.9463 21.3906 56.9463C21.3835 56.9463 21.362 56.9391 21.3262 56.9248C21.2975 56.9105 21.2653 56.8962 21.2295 56.8818C21.2008 56.8675 21.1686 56.8532 21.1328 56.8389C21.1042 56.8174 21.0863 56.8066 21.0791 56.8066C21.0433 56.7923 20.986 56.778 20.9072 56.7637C20.8285 56.7422 20.7747 56.7279 20.7461 56.7207L20.7354 56.6885ZM21.1328 56.5488L21.2939 56.4521H21.1328V56.5488ZM20.9609 56.3877C20.9251 56.3877 20.9072 56.4163 20.9072 56.4736C20.9144 56.5309 20.9359 56.5596 20.9717 56.5596C21.0146 56.5596 21.0326 56.5309 21.0254 56.4736C21.0254 56.4163 21.0039 56.3877 20.9609 56.3877ZM24.4307 56.0332C24.3877 56.0332 24.3662 56.0583 24.3662 56.1084C24.3734 56.1585 24.3984 56.1836 24.4414 56.1836C24.4772 56.1764 24.4915 56.1478 24.4844 56.0977C24.4844 56.0475 24.4665 56.026 24.4307 56.0332ZM21.0361 54.7979C21.1077 54.8193 21.1543 54.8659 21.1758 54.9375C21.1973 55.002 21.2116 55.0807 21.2188 55.1738C21.2331 55.2598 21.2474 55.3529 21.2617 55.4531C21.2832 55.5462 21.3298 55.6322 21.4014 55.7109C21.4085 55.7181 21.4479 55.7432 21.5195 55.7861C21.5911 55.8291 21.6341 55.8577 21.6484 55.8721C21.6628 55.8792 21.6771 55.9079 21.6914 55.958C21.7057 56.001 21.7201 56.0225 21.7344 56.0225C21.8132 56.0798 21.9062 56.1084 22.0137 56.1084C22.1211 56.1084 22.2142 56.1084 22.293 56.1084C22.7728 56.1084 23.1631 56.0404 23.4639 55.9043C23.7718 55.7611 24.0225 55.5749 24.2158 55.3457C24.4163 55.1165 24.5739 54.8587 24.6885 54.5723C24.8102 54.2786 24.9212 53.9814 25.0215 53.6807C25.0573 53.5876 25.0824 53.4229 25.0967 53.1865C25.111 52.9502 25.1217 52.7031 25.1289 52.4453C25.1361 52.1803 25.1468 51.9333 25.1611 51.7041C25.1755 51.4678 25.2005 51.3031 25.2363 51.21V51.1885C25.2363 51.1813 25.2363 51.1777 25.2363 51.1777C25.2435 51.1777 25.2471 51.1742 25.2471 51.167L25.2256 51.1348C25.2184 51.1276 25.2041 51.1133 25.1826 51.0918C25.1611 51.0703 25.1504 51.056 25.1504 51.0488C25.1504 51.0417 25.1468 51.0202 25.1396 50.9844C25.1396 50.9486 25.1396 50.9128 25.1396 50.877C25.1396 50.8411 25.1361 50.8089 25.1289 50.7803C25.1289 50.7445 25.1289 50.723 25.1289 50.7158C25.1146 50.7087 25.0716 50.6979 25 50.6836C24.9355 50.6693 24.8997 50.6549 24.8926 50.6406C24.8854 50.6406 24.8783 50.6263 24.8711 50.5977C24.8639 50.569 24.8604 50.5439 24.8604 50.5225C24.8604 50.4652 24.8675 50.4258 24.8818 50.4043C24.9033 50.3757 24.9248 50.3577 24.9463 50.3506C24.9749 50.3363 25 50.3255 25.0215 50.3184C25.043 50.3112 25.0537 50.2969 25.0537 50.2754C24.9893 50.2754 24.9355 50.2288 24.8926 50.1357C24.8568 50.0426 24.8281 49.9388 24.8066 49.8242C24.7852 49.7025 24.7637 49.5879 24.7422 49.4805C24.7279 49.373 24.7064 49.3014 24.6777 49.2656C24.6634 49.2585 24.6312 49.2334 24.5811 49.1904C24.5381 49.1475 24.513 49.1188 24.5059 49.1045C24.5059 49.0973 24.5059 49.0794 24.5059 49.0508C24.5059 49.015 24.5059 48.9792 24.5059 48.9434C24.5059 48.9004 24.5023 48.8646 24.4951 48.8359C24.4951 48.8001 24.4915 48.7786 24.4844 48.7715C24.4844 48.7643 24.4736 48.75 24.4521 48.7285C24.4307 48.707 24.4163 48.6927 24.4092 48.6855C24.402 48.6712 24.4056 48.6318 24.4199 48.5674C24.4414 48.5029 24.4521 48.4671 24.4521 48.46C24.4951 48.46 24.5273 48.4635 24.5488 48.4707C24.5775 48.4779 24.599 48.4814 24.6133 48.4814C24.6276 48.4814 24.6455 48.4743 24.667 48.46C24.6885 48.4456 24.7171 48.4206 24.7529 48.3848C24.71 48.3561 24.6634 48.3418 24.6133 48.3418C24.5632 48.3346 24.5094 48.3311 24.4521 48.3311C24.402 48.3239 24.3519 48.3167 24.3018 48.3096C24.2588 48.3024 24.223 48.2773 24.1943 48.2344C24.1729 48.2057 24.1621 48.1699 24.1621 48.127C24.1621 48.0768 24.1585 48.0267 24.1514 47.9766C24.1514 47.9193 24.1406 47.8656 24.1191 47.8154C24.1048 47.7581 24.0654 47.708 24.001 47.665C23.9938 47.665 23.9688 47.6543 23.9258 47.6328C23.8828 47.6113 23.8542 47.597 23.8398 47.5898C23.8327 47.5827 23.8291 47.5755 23.8291 47.5684V47.5469V47.5039C23.8363 47.4967 23.847 47.486 23.8613 47.4717C23.8828 47.4502 23.9007 47.4359 23.915 47.4287C23.9079 47.4287 23.8936 47.4251 23.8721 47.418C23.8577 47.4036 23.8434 47.3965 23.8291 47.3965C23.7861 47.3965 23.7467 47.4108 23.7109 47.4395C23.6823 47.4681 23.6751 47.5182 23.6895 47.5898C23.6107 47.5684 23.5355 47.5326 23.4639 47.4824C23.3994 47.4251 23.335 47.3714 23.2705 47.3213C23.2061 47.264 23.1452 47.2174 23.0879 47.1816C23.0306 47.1387 22.9697 47.1172 22.9053 47.1172H22.8623C22.8337 47.1315 22.7943 47.1566 22.7441 47.1924C22.7012 47.2282 22.6546 47.2676 22.6045 47.3105C22.5544 47.3464 22.5114 47.3822 22.4756 47.418C22.4398 47.4466 22.4183 47.4645 22.4111 47.4717C22.404 47.4788 22.3932 47.5003 22.3789 47.5361C22.3646 47.5648 22.3503 47.597 22.3359 47.6328C22.3216 47.6686 22.3073 47.7044 22.293 47.7402C22.2786 47.776 22.2679 47.7975 22.2607 47.8047C22.2536 47.819 22.2357 47.8477 22.207 47.8906C22.1784 47.9264 22.1462 47.9694 22.1104 48.0195C22.0817 48.0625 22.0531 48.1055 22.0244 48.1484C21.9958 48.1914 21.9814 48.2201 21.9814 48.2344C21.96 48.263 21.9313 48.3239 21.8955 48.417C21.8597 48.5029 21.8203 48.5996 21.7773 48.707C21.7344 48.8145 21.695 48.9183 21.6592 49.0186C21.6234 49.1117 21.5983 49.1725 21.584 49.2012C21.6055 49.2227 21.609 49.2477 21.5947 49.2764C21.5876 49.2907 21.5732 49.3086 21.5518 49.3301C21.5374 49.3516 21.5267 49.3623 21.5195 49.3623C21.5124 49.3766 21.5016 49.4375 21.4873 49.5449C21.473 49.6523 21.4587 49.7705 21.4443 49.8994C21.4372 50.0212 21.4264 50.1357 21.4121 50.2432C21.4049 50.3506 21.3978 50.415 21.3906 50.4365H21.3154C21.3154 50.458 21.3118 50.4974 21.3047 50.5547C21.3047 50.6048 21.3011 50.6621 21.2939 50.7266C21.2939 50.791 21.2904 50.8519 21.2832 50.9092C21.276 50.9593 21.2689 50.9951 21.2617 51.0166C21.2617 51.0238 21.2546 51.0452 21.2402 51.0811C21.2259 51.1097 21.2116 51.1419 21.1973 51.1777C21.1829 51.2135 21.1686 51.2493 21.1543 51.2852C21.14 51.321 21.1328 51.3424 21.1328 51.3496C21.1042 51.4642 21.0934 51.5895 21.1006 51.7256C21.1149 51.8545 21.1113 51.9762 21.0898 52.0908C21.0755 52.1839 21.0648 52.3164 21.0576 52.4883C21.0505 52.653 21.0397 52.8285 21.0254 53.0146C21.0182 53.2008 21.0075 53.3799 20.9932 53.5518C20.9788 53.7236 20.9574 53.8561 20.9287 53.9492C20.9215 53.9564 20.918 53.9635 20.918 53.9707V53.9922C20.918 54.0137 20.9287 54.0566 20.9502 54.1211C20.9717 54.1784 20.9932 54.2428 21.0146 54.3145C21.0361 54.3789 21.0576 54.4434 21.0791 54.5078C21.1006 54.5651 21.1113 54.6081 21.1113 54.6367C21.1113 54.6725 21.1077 54.7048 21.1006 54.7334C21.1006 54.762 21.0791 54.7835 21.0361 54.7979ZM20.2305 54.7549C20.1947 54.7549 20.1768 54.7835 20.1768 54.8408C20.1839 54.891 20.2054 54.916 20.2412 54.916C20.2842 54.916 20.3021 54.891 20.2949 54.8408C20.2949 54.7835 20.2734 54.7549 20.2305 54.7549ZM20.3701 51.8652C20.3343 51.8652 20.3164 51.8939 20.3164 51.9512C20.3164 52.0085 20.3343 52.0371 20.3701 52.0371C20.4131 52.0371 20.4346 52.0085 20.4346 51.9512C20.4346 51.8939 20.4131 51.8652 20.3701 51.8652ZM25.9346 50.9414H26.0957L26.0098 50.8662L25.9346 50.9414ZM21.1436 50.3506C21.1507 50.3219 21.1364 50.3112 21.1006 50.3184C21.0719 50.3184 21.0612 50.3327 21.0684 50.3613C21.0755 50.3828 21.0898 50.3936 21.1113 50.3936C21.1328 50.3864 21.1436 50.3721 21.1436 50.3506ZM20.5742 49.3086C20.5312 49.3086 20.5098 49.3372 20.5098 49.3945C20.5169 49.4518 20.542 49.4805 20.585 49.4805C20.6208 49.4805 20.6351 49.4518 20.6279 49.3945C20.6279 49.3372 20.61 49.3086 20.5742 49.3086ZM20.7998 49.1367C20.7568 49.1367 20.7354 49.1654 20.7354 49.2227C20.7425 49.2728 20.7676 49.2979 20.8105 49.2979C20.8464 49.2979 20.8607 49.2728 20.8535 49.2227C20.8535 49.1654 20.8356 49.1367 20.7998 49.1367ZM21.4014 48.8682C21.3656 48.8753 21.3477 48.9076 21.3477 48.9648C21.3548 49.015 21.3763 49.0365 21.4121 49.0293C21.4551 49.0293 21.473 49.0042 21.4658 48.9541C21.4658 48.8968 21.4443 48.8682 21.4014 48.8682ZM21.0791 48.707C21.0433 48.707 21.0254 48.7357 21.0254 48.793C21.0326 48.8503 21.054 48.8789 21.0898 48.8789C21.1257 48.8789 21.14 48.8503 21.1328 48.793C21.1328 48.7357 21.1149 48.707 21.0791 48.707ZM21.7773 47.4932C21.7415 47.4932 21.7236 47.5218 21.7236 47.5791C21.7308 47.6292 21.7523 47.6543 21.7881 47.6543C21.8311 47.6543 21.849 47.6292 21.8418 47.5791C21.8418 47.5218 21.8203 47.4932 21.7773 47.4932ZM21.9385 47.4932C21.9027 47.4932 21.8848 47.5218 21.8848 47.5791C21.8919 47.6292 21.9134 47.6543 21.9492 47.6543C21.985 47.6471 21.9993 47.6185 21.9922 47.5684C21.9922 47.5111 21.9743 47.486 21.9385 47.4932ZM23.4316 47.2676C23.4316 47.2819 23.4388 47.2998 23.4531 47.3213C23.4746 47.3428 23.4925 47.3535 23.5068 47.3535C23.5212 47.3535 23.5462 47.3428 23.582 47.3213C23.625 47.2926 23.6536 47.2712 23.668 47.2568C23.668 47.2425 23.6536 47.2282 23.625 47.2139C23.6035 47.1995 23.5856 47.1924 23.5713 47.1924C23.557 47.1924 23.5319 47.2031 23.4961 47.2246C23.4603 47.2389 23.4388 47.2533 23.4316 47.2676ZM21.5195 47.2568C21.4837 47.2568 21.4658 47.2855 21.4658 47.3428C21.473 47.3929 21.4945 47.418 21.5303 47.418C21.5732 47.418 21.5911 47.3929 21.584 47.3428C21.584 47.2855 21.5625 47.2568 21.5195 47.2568ZM21.9492 46.9775C21.8991 46.9775 21.8633 46.999 21.8418 47.042C21.8275 47.0778 21.8239 47.1136 21.8311 47.1494C21.8311 47.1637 21.8311 47.1816 21.8311 47.2031C21.8382 47.2246 21.8418 47.2389 21.8418 47.2461L21.9814 46.9883L21.9492 46.9775ZM22.3896 47.1279C22.3538 47.1279 22.3359 47.1566 22.3359 47.2139C22.3431 47.2712 22.3646 47.2998 22.4004 47.2998C22.4362 47.2998 22.4505 47.2712 22.4434 47.2139C22.4434 47.1566 22.4255 47.1279 22.3896 47.1279ZM21.7451 46.999C21.7523 46.9632 21.738 46.9453 21.7021 46.9453C21.6735 46.9453 21.6628 46.9632 21.6699 46.999C21.6771 47.0205 21.6914 47.0312 21.7129 47.0312C21.7344 47.0312 21.7451 47.0205 21.7451 46.999ZM23.3672 46.2793C23.403 46.2793 23.4209 46.3079 23.4209 46.3652C23.4281 46.4154 23.4137 46.4404 23.3779 46.4404C23.335 46.4404 23.3099 46.4154 23.3027 46.3652C23.3027 46.3079 23.3242 46.2793 23.3672 46.2793ZM26.9229 48.6533C26.9658 48.596 27.0195 48.5459 27.084 48.5029C27.1556 48.4528 27.2308 48.4313 27.3096 48.4385C27.3669 48.4456 27.4385 48.4814 27.5244 48.5459C27.6104 48.6104 27.6712 48.6676 27.707 48.7178L27.6318 48.793H27.5352C27.5495 48.8359 27.5602 48.8825 27.5674 48.9326C27.5817 48.9756 27.6139 48.9971 27.6641 48.9971C27.6641 49.0472 27.6712 49.0973 27.6855 49.1475C27.6999 49.1904 27.682 49.2477 27.6318 49.3193L27.6641 49.4053C27.6641 49.4053 27.6712 49.4089 27.6855 49.416H27.707C27.7214 49.4232 27.7285 49.4232 27.7285 49.416C27.7357 49.4017 27.7464 49.4017 27.7607 49.416C27.7679 49.416 27.7751 49.416 27.7822 49.416C27.7965 49.4089 27.8109 49.4053 27.8252 49.4053C27.8252 49.3695 27.8252 49.3444 27.8252 49.3301C27.8252 49.3086 27.8252 49.2907 27.8252 49.2764C27.8324 49.2549 27.8359 49.2334 27.8359 49.2119C27.8431 49.1904 27.8467 49.1582 27.8467 49.1152C27.904 49.1224 27.9792 49.1296 28.0723 49.1367C28.1725 49.1439 28.2513 49.151 28.3086 49.1582C28.3229 49.1582 28.348 49.151 28.3838 49.1367C28.4196 49.1152 28.4447 49.0973 28.459 49.083C28.4661 49.0758 28.4626 49.0651 28.4482 49.0508C28.4411 49.0293 28.4375 49.015 28.4375 49.0078L28.1904 48.9863C28.1904 48.9792 28.194 48.9684 28.2012 48.9541C28.2155 48.9326 28.2227 48.9183 28.2227 48.9111C28.2513 48.8825 28.2943 48.8538 28.3516 48.8252C28.4089 48.7894 28.4447 48.7715 28.459 48.7715C28.4733 48.7715 28.502 48.7965 28.5449 48.8467C28.5879 48.8968 28.613 48.929 28.6201 48.9434C28.6273 48.9434 28.6344 48.9398 28.6416 48.9326C28.6488 48.9255 28.6559 48.9219 28.6631 48.9219V48.6963C28.6702 48.6963 28.6774 48.6999 28.6846 48.707C28.6917 48.7142 28.6989 48.7178 28.7061 48.7178C28.7132 48.7178 28.7383 48.7321 28.7812 48.7607C28.8242 48.7894 28.8493 48.8037 28.8564 48.8037C28.8636 48.8037 28.8743 48.7965 28.8887 48.7822C28.9102 48.7607 28.9281 48.7464 28.9424 48.7393C29.014 48.6318 29.0892 48.5566 29.168 48.5137C29.2539 48.4707 29.3434 48.4456 29.4365 48.4385C29.5296 48.4242 29.6263 48.4206 29.7266 48.4277C29.8268 48.4349 29.9342 48.4349 30.0488 48.4277C30.056 48.4277 30.0811 48.417 30.124 48.3955C30.167 48.3669 30.1921 48.3525 30.1992 48.3525C30.2852 48.3597 30.3568 48.3812 30.4141 48.417C30.4714 48.4456 30.5215 48.4779 30.5645 48.5137C30.6146 48.5495 30.6576 48.5817 30.6934 48.6104C30.7363 48.639 30.7865 48.6569 30.8438 48.6641H30.9297L30.8438 48.5781C30.8581 48.5781 30.8831 48.5853 30.9189 48.5996C30.9548 48.6068 30.9941 48.6175 31.0371 48.6318C31.0801 48.6462 31.1195 48.6605 31.1553 48.6748C31.1911 48.6891 31.2161 48.6963 31.2305 48.6963C31.2376 48.6963 31.252 48.6963 31.2734 48.6963C31.2949 48.6891 31.3128 48.6855 31.3271 48.6855C31.3271 48.6927 31.3379 48.6963 31.3594 48.6963C31.3665 48.6963 31.3773 48.6999 31.3916 48.707L31.6279 49.1152C31.6781 49.0723 31.7174 49.0723 31.7461 49.1152C31.7747 49.151 31.8034 49.2012 31.832 49.2656C31.8678 49.3301 31.9072 49.3981 31.9502 49.4697C31.9932 49.5342 32.0505 49.57 32.1221 49.5771C32.1221 49.613 32.1221 49.6595 32.1221 49.7168C32.1221 49.7669 32.1149 49.8171 32.1006 49.8672C32.0934 49.9102 32.0791 49.946 32.0576 49.9746C32.0361 49.9961 32.0039 49.9997 31.9609 49.9854C31.9967 50.0283 32.029 50.1107 32.0576 50.2324C32.0934 50.347 32.1113 50.4258 32.1113 50.4688V50.501C32.0898 50.5368 32.0719 50.5941 32.0576 50.6729C32.0433 50.7516 32.0254 50.8376 32.0039 50.9307C31.9896 51.0166 31.9717 51.099 31.9502 51.1777C31.9359 51.2565 31.918 51.3102 31.8965 51.3389C31.8822 51.3532 31.8535 51.3783 31.8105 51.4141C31.7676 51.4499 31.7425 51.4714 31.7354 51.4785C31.7282 51.4928 31.7139 51.5179 31.6924 51.5537C31.6709 51.5895 31.6458 51.6289 31.6172 51.6719C31.5957 51.7148 31.5706 51.7578 31.542 51.8008C31.5205 51.8366 31.5062 51.8581 31.499 51.8652C31.4632 51.9082 31.4202 51.9476 31.3701 51.9834C31.3271 52.012 31.2878 52.0443 31.252 52.0801C31.2161 52.1159 31.1839 52.1553 31.1553 52.1982C31.1266 52.2412 31.1123 52.2985 31.1123 52.3701C31.098 52.3558 31.0693 52.3379 31.0264 52.3164C30.9906 52.2949 30.9655 52.2842 30.9512 52.2842L30.876 52.3594C30.8688 52.3665 30.8545 52.3916 30.833 52.4346C30.8187 52.4775 30.8079 52.5026 30.8008 52.5098C30.7936 52.5169 30.7793 52.5169 30.7578 52.5098C30.7363 52.4954 30.722 52.4919 30.7148 52.499C30.7005 52.5133 30.6755 52.5527 30.6396 52.6172C30.6038 52.6816 30.5788 52.7174 30.5645 52.7246C30.5501 52.7389 30.5251 52.7497 30.4893 52.7568C30.4606 52.764 30.4391 52.7676 30.4248 52.7676C30.4248 52.7819 30.3818 52.7962 30.2959 52.8105C30.21 52.8249 30.1169 52.8428 30.0166 52.8643C29.9235 52.8786 29.8447 52.8965 29.7803 52.918C29.7158 52.9395 29.7087 52.9609 29.7588 52.9824C29.7731 52.9896 29.8018 53.0218 29.8447 53.0791C29.8949 53.1292 29.945 53.1901 29.9951 53.2617C30.0524 53.3262 30.1025 53.3906 30.1455 53.4551C30.1956 53.5124 30.2279 53.5446 30.2422 53.5518C30.3568 53.652 30.4391 53.7451 30.4893 53.8311C30.5465 53.9098 30.5931 53.9886 30.6289 54.0674C30.6719 54.139 30.722 54.2142 30.7793 54.293C30.8366 54.3717 30.9297 54.4541 31.0586 54.54C31.0658 54.5472 31.1087 54.5902 31.1875 54.6689C31.2734 54.7477 31.363 54.8337 31.4561 54.9268C31.5492 55.0199 31.6351 55.1058 31.7139 55.1846C31.7926 55.2633 31.8356 55.3063 31.8428 55.3135C31.8571 55.3206 31.8822 55.36 31.918 55.4316C31.9538 55.5033 31.9896 55.582 32.0254 55.668C32.0684 55.7467 32.1077 55.8219 32.1436 55.8936C32.1794 55.958 32.2044 55.9938 32.2188 56.001C32.2331 56.0153 32.2653 56.0404 32.3154 56.0762C32.3727 56.1048 32.43 56.1406 32.4873 56.1836C32.5446 56.2266 32.5947 56.2695 32.6377 56.3125C32.6807 56.3555 32.6986 56.3984 32.6914 56.4414C32.6842 56.4557 32.6592 56.4915 32.6162 56.5488C32.5804 56.6061 32.5518 56.6455 32.5303 56.667C32.473 56.7171 32.4157 56.778 32.3584 56.8496C32.3011 56.9141 32.2617 56.9499 32.2402 56.957C32.2259 56.9642 32.1794 56.9678 32.1006 56.9678C32.0218 56.9606 31.9609 56.957 31.918 56.957C31.8965 56.957 31.875 56.9391 31.8535 56.9033C31.832 56.8604 31.8105 56.8174 31.7891 56.7744C31.7747 56.7314 31.7604 56.6921 31.7461 56.6562C31.7389 56.6133 31.7318 56.5918 31.7246 56.5918C31.7031 56.5846 31.6709 56.5632 31.6279 56.5273C31.5921 56.4844 31.5527 56.4414 31.5098 56.3984C31.4668 56.3483 31.4274 56.3018 31.3916 56.2588C31.3558 56.2158 31.3343 56.1836 31.3271 56.1621C31.2985 56.1764 31.2699 56.1764 31.2412 56.1621C31.2197 56.1406 31.1982 56.1156 31.1768 56.0869L31.0908 55.9795H31.0156C30.9941 55.9723 30.9655 55.9508 30.9297 55.915C30.901 55.8721 30.8652 55.8291 30.8223 55.7861C30.7865 55.7432 30.7542 55.7038 30.7256 55.668C30.6969 55.6322 30.679 55.6107 30.6719 55.6035C30.6647 55.5964 30.6468 55.5713 30.6182 55.5283C30.5895 55.4782 30.5573 55.4281 30.5215 55.3779C30.4857 55.3206 30.4499 55.2705 30.4141 55.2275C30.3783 55.1846 30.3568 55.1595 30.3496 55.1523C30.3424 55.1452 30.3031 55.113 30.2314 55.0557C30.167 54.9912 30.1276 54.959 30.1133 54.959C30.056 54.9447 29.9987 54.9017 29.9414 54.8301C29.8913 54.7585 29.8447 54.6797 29.8018 54.5938C29.7588 54.5078 29.7158 54.4219 29.6729 54.3359C29.6299 54.25 29.5905 54.1784 29.5547 54.1211C29.5189 54.1068 29.4688 54.0674 29.4043 54.0029C29.3398 53.9385 29.2754 53.8704 29.2109 53.7988C29.1465 53.7201 29.082 53.6484 29.0176 53.584C28.9531 53.5195 28.903 53.4766 28.8672 53.4551C28.8457 53.4336 28.8027 53.3906 28.7383 53.3262C28.681 53.2617 28.6452 53.2188 28.6309 53.1973L28.1904 52.9717C28.1761 52.9717 28.1475 52.9896 28.1045 53.0254C28.0615 53.0612 28.04 53.0898 28.04 53.1113C28.0329 53.1257 28.0436 53.1686 28.0723 53.2402C28.1081 53.3047 28.126 53.3405 28.126 53.3477V53.7881C28.1117 53.8239 28.0973 53.8848 28.083 53.9707C28.0758 54.0566 28.0687 54.1533 28.0615 54.2607C28.0615 54.3682 28.0579 54.4863 28.0508 54.6152C28.0508 54.737 28.0508 54.8551 28.0508 54.9697V55.2812C28.0938 55.2884 28.1188 55.3206 28.126 55.3779C28.1331 55.4281 28.1331 55.4889 28.126 55.5605C28.1188 55.625 28.1081 55.693 28.0938 55.7646C28.0866 55.8291 28.083 55.8792 28.083 55.915V56.0225C28.083 56.1299 28.0866 56.2445 28.0938 56.3662C28.1081 56.488 28.1009 56.599 28.0723 56.6992C28.0508 56.7995 28.0042 56.8818 27.9326 56.9463C27.861 57.0036 27.7464 57.0251 27.5889 57.0107C27.4814 57.0036 27.3955 56.9857 27.3311 56.957C27.2666 56.9284 27.2165 56.889 27.1807 56.8389C27.152 56.7887 27.1305 56.7314 27.1162 56.667C27.109 56.5954 27.0983 56.513 27.084 56.4199C27.084 56.3984 27.084 56.3161 27.084 56.1729C27.0911 56.0296 27.0947 55.8757 27.0947 55.7109C27.1019 55.5391 27.109 55.3815 27.1162 55.2383C27.1234 55.0951 27.127 55.0127 27.127 54.9912C27.127 54.9912 27.1234 54.9518 27.1162 54.873C27.1162 54.7943 27.1162 54.7083 27.1162 54.6152C27.1162 54.515 27.1126 54.4255 27.1055 54.3467C27.1055 54.2607 27.1055 54.2106 27.1055 54.1963C27.1055 54.1032 27.109 54.0387 27.1162 54.0029C27.1305 53.9671 27.1413 53.9456 27.1484 53.9385C27.1628 53.9313 27.1735 53.9277 27.1807 53.9277C27.195 53.9206 27.2021 53.8955 27.2021 53.8525C27.2021 53.8096 27.1878 53.7773 27.1592 53.7559C27.1305 53.7344 27.1162 53.6986 27.1162 53.6484C27.1162 53.541 27.127 53.4372 27.1484 53.3369C27.1699 53.2295 27.1807 53.1185 27.1807 53.0039V52.9395C27.1735 52.9108 27.1484 52.8571 27.1055 52.7783C27.0625 52.6924 27.0339 52.6351 27.0195 52.6064L26.9873 50.2432L27.1162 50.1787C27.0804 50.0856 27.0231 50.0391 26.9443 50.0391C26.9443 49.8242 27.0052 49.6631 27.127 49.5557L26.998 49.3516C26.9622 49.3444 26.9229 49.3301 26.8799 49.3086C26.8441 49.2871 26.8262 49.2728 26.8262 49.2656C26.8262 49.2513 26.8298 49.2262 26.8369 49.1904C26.8441 49.1546 26.8548 49.1188 26.8691 49.083C26.8906 49.0472 26.9121 49.0186 26.9336 48.9971C26.9622 48.9684 26.9909 48.9541 27.0195 48.9541C27.0195 48.9541 27.0267 48.9577 27.041 48.9648C27.0482 48.972 27.0553 48.9756 27.0625 48.9756C27.0768 48.9541 27.0947 48.929 27.1162 48.9004C27.1305 48.8789 27.1449 48.8574 27.1592 48.8359C27.1807 48.8145 27.2021 48.7894 27.2236 48.7607L26.998 48.7393L26.9229 48.6533ZM27.9219 51.8975C27.929 51.9118 27.9541 51.9404 27.9971 51.9834C28.04 52.0264 28.0687 52.055 28.083 52.0693C28.0973 52.0765 28.1367 52.0801 28.2012 52.0801C28.2656 52.0801 28.305 52.0837 28.3193 52.0908C28.3265 52.0908 28.3408 52.1051 28.3623 52.1338C28.3838 52.1553 28.3981 52.1696 28.4053 52.1768C28.4196 52.1839 28.4339 52.1875 28.4482 52.1875H28.5234C28.6452 52.2018 28.7598 52.2269 28.8672 52.2627C28.9746 52.2913 29.082 52.2949 29.1895 52.2734C29.2109 52.2663 29.2718 52.252 29.3721 52.2305C29.4723 52.2018 29.5332 52.1839 29.5547 52.1768C29.5618 52.1696 29.5833 52.1624 29.6191 52.1553C29.6621 52.141 29.7051 52.1266 29.748 52.1123C29.791 52.098 29.8304 52.0872 29.8662 52.0801C29.902 52.0658 29.9271 52.0586 29.9414 52.0586C30.0632 52.0228 30.1598 51.9727 30.2314 51.9082C30.3031 51.8438 30.3926 51.7507 30.5 51.6289C30.5072 51.6146 30.543 51.568 30.6074 51.4893C30.6719 51.4105 30.7077 51.3639 30.7148 51.3496C30.7578 51.2852 30.8044 51.2028 30.8545 51.1025C30.9046 50.9951 30.9548 50.8841 31.0049 50.7695C31.055 50.6478 31.0944 50.5296 31.123 50.415C31.1517 50.3005 31.166 50.2002 31.166 50.1143C31.166 50.0283 31.1553 49.9424 31.1338 49.8564C31.1123 49.7633 31.0837 49.681 31.0479 49.6094C31.012 49.5306 30.9655 49.4661 30.9082 49.416C30.8509 49.3587 30.7865 49.3265 30.7148 49.3193C30.6719 49.3193 30.5967 49.3122 30.4893 49.2979C30.389 49.2835 30.2816 49.2728 30.167 49.2656C30.0596 49.2585 29.9629 49.262 29.877 49.2764C29.791 49.2835 29.7409 49.3086 29.7266 49.3516C29.7122 49.3014 29.6908 49.2728 29.6621 49.2656C29.6335 49.2585 29.6012 49.2513 29.5654 49.2441C29.5583 49.2441 29.5439 49.2477 29.5225 49.2549C29.5081 49.2549 29.4974 49.2549 29.4902 49.2549L29.5654 49.3301C29.5654 49.3444 29.5547 49.3623 29.5332 49.3838C29.5189 49.3981 29.5046 49.4053 29.4902 49.4053C29.4759 49.4124 29.4437 49.4196 29.3936 49.4268C29.3506 49.4268 29.3005 49.4268 29.2432 49.4268C29.193 49.4268 29.1429 49.4303 29.0928 49.4375C29.0498 49.4375 29.0247 49.4411 29.0176 49.4482C29.0104 49.4482 28.9997 49.4626 28.9854 49.4912C28.971 49.5199 28.9531 49.5521 28.9316 49.5879C28.9173 49.6237 28.903 49.6595 28.8887 49.6953C28.8815 49.724 28.8743 49.7419 28.8672 49.749C28.8314 49.7992 28.7812 49.8314 28.7168 49.8457C28.6595 49.86 28.6058 49.8708 28.5557 49.8779C28.5413 49.8779 28.502 49.8743 28.4375 49.8672C28.373 49.86 28.3337 49.86 28.3193 49.8672C28.305 49.8672 28.2907 49.8887 28.2764 49.9316C28.262 49.9746 28.2477 50.0033 28.2334 50.0176C28.2262 50.0104 28.2155 50.0068 28.2012 50.0068H28.1582C28.151 50.014 28.126 50.0462 28.083 50.1035C28.0472 50.1536 28.0186 50.1966 27.9971 50.2324C27.9827 50.2611 27.9648 50.3005 27.9434 50.3506C27.929 50.4007 27.9147 50.458 27.9004 50.5225C27.8861 50.5798 27.8717 50.637 27.8574 50.6943C27.8503 50.7445 27.8467 50.7839 27.8467 50.8125C27.8467 50.8555 27.8467 50.9199 27.8467 51.0059C27.8467 51.0918 27.8503 51.1742 27.8574 51.2529C27.8646 51.3317 27.8753 51.4033 27.8896 51.4678C27.9111 51.5322 27.9398 51.5645 27.9756 51.5645C27.9756 51.6074 27.9792 51.6432 27.9863 51.6719C28.0007 51.7005 28.0114 51.7292 28.0186 51.7578C28.0257 51.7865 28.0221 51.8115 28.0078 51.833C27.9935 51.8545 27.9648 51.876 27.9219 51.8975ZM29.8447 52.4238C29.8304 52.4382 29.8018 52.474 29.7588 52.5312C29.723 52.5885 29.7015 52.6279 29.6943 52.6494C29.6872 52.6566 29.6836 52.6637 29.6836 52.6709V52.6924V52.7139C29.6836 52.721 29.6872 52.7246 29.6943 52.7246C29.7087 52.7318 29.7337 52.7282 29.7695 52.7139C29.8125 52.6924 29.8376 52.6745 29.8447 52.6602C29.8519 52.653 29.8555 52.6387 29.8555 52.6172C29.8626 52.5885 29.8662 52.5671 29.8662 52.5527C29.8662 52.5456 29.8626 52.5277 29.8555 52.499C29.8555 52.4632 29.8519 52.4382 29.8447 52.4238ZM29.6299 52.252C29.5941 52.252 29.5762 52.2806 29.5762 52.3379C29.5833 52.388 29.6048 52.4131 29.6406 52.4131C29.6836 52.4202 29.7015 52.3988 29.6943 52.3486C29.6943 52.2913 29.6729 52.2591 29.6299 52.252ZM27.2451 51.5215C27.2093 51.5143 27.1914 51.5394 27.1914 51.5967C27.1986 51.6468 27.2201 51.6755 27.2559 51.6826C27.2988 51.6898 27.3167 51.6683 27.3096 51.6182C27.3096 51.5609 27.2881 51.5286 27.2451 51.5215ZM30.4785 52.4775C30.4427 52.4775 30.4212 52.4954 30.4141 52.5312C30.4141 52.5671 30.432 52.585 30.4678 52.585C30.5107 52.5921 30.5322 52.5778 30.5322 52.542C30.5394 52.5062 30.5215 52.4847 30.4785 52.4775ZM27.1484 49.6846C27.1126 49.6846 27.0947 49.7132 27.0947 49.7705C27.0947 49.8206 27.1126 49.8457 27.1484 49.8457C27.1914 49.8529 27.2129 49.8314 27.2129 49.7812C27.2129 49.724 27.1914 49.6917 27.1484 49.6846ZM28.9209 52.4775C28.8851 52.4704 28.8672 52.4954 28.8672 52.5527C28.8672 52.6029 28.8851 52.6315 28.9209 52.6387C28.9639 52.6458 28.9854 52.6243 28.9854 52.5742C28.9854 52.5169 28.9639 52.4847 28.9209 52.4775ZM28.8564 49.2764C28.8206 49.2692 28.8027 49.2943 28.8027 49.3516C28.8027 49.4017 28.8206 49.4303 28.8564 49.4375C28.8994 49.4447 28.9209 49.4232 28.9209 49.373C28.9209 49.3158 28.8994 49.2835 28.8564 49.2764ZM28.8672 53.1328C28.8314 53.1257 28.8135 53.1507 28.8135 53.208C28.8135 53.2581 28.8314 53.2868 28.8672 53.2939C28.9102 53.2939 28.9316 53.2689 28.9316 53.2188C28.9316 53.1615 28.9102 53.1328 28.8672 53.1328ZM28.5449 49.1689C28.502 49.1689 28.4805 49.194 28.4805 49.2441C28.4805 49.2943 28.502 49.3193 28.5449 49.3193C28.5807 49.3265 28.5986 49.305 28.5986 49.2549C28.5986 49.2048 28.5807 49.1761 28.5449 49.1689ZM27.8359 51.7363C27.8001 51.7363 27.7822 51.7614 27.7822 51.8115C27.7822 51.8617 27.8001 51.8867 27.8359 51.8867C27.8789 51.8939 27.9004 51.8724 27.9004 51.8223C27.9004 51.7721 27.8789 51.7435 27.8359 51.7363ZM30.2422 52.6172C30.2064 52.6172 30.1885 52.6423 30.1885 52.6924C30.1885 52.7425 30.2064 52.7676 30.2422 52.7676C30.2852 52.7747 30.3066 52.7533 30.3066 52.7031C30.3066 52.653 30.2852 52.6243 30.2422 52.6172ZM28.9531 52.3057C28.9173 52.2985 28.8994 52.32 28.8994 52.3701C28.8994 52.4202 28.9173 52.4489 28.9531 52.4561C28.9961 52.4632 29.0176 52.4417 29.0176 52.3916C29.0176 52.3415 28.9961 52.3128 28.9531 52.3057ZM27.7178 52.8857C27.682 52.8786 27.6641 52.9036 27.6641 52.9609C27.6641 53.0111 27.682 53.0397 27.7178 53.0469C27.7536 53.0469 27.7715 53.0218 27.7715 52.9717C27.7715 52.9144 27.7536 52.8857 27.7178 52.8857ZM28.3838 49.3945C28.348 49.3945 28.3301 49.4196 28.3301 49.4697C28.3372 49.5199 28.3587 49.5449 28.3945 49.5449C28.4303 49.5521 28.4447 49.5306 28.4375 49.4805C28.4375 49.4303 28.4196 49.4017 28.3838 49.3945ZM28.1152 52.6387C28.1081 52.6458 28.0938 52.6602 28.0723 52.6816C28.0508 52.696 28.04 52.7103 28.04 52.7246L28.0293 52.7568C28.0293 52.764 28.0293 52.7712 28.0293 52.7783C28.0365 52.7855 28.04 52.7926 28.04 52.7998L28.1152 52.7246V52.7031C28.1152 52.696 28.1152 52.6924 28.1152 52.6924C28.1224 52.6924 28.126 52.6888 28.126 52.6816C28.126 52.6745 28.1224 52.6673 28.1152 52.6602C28.1152 52.653 28.1152 52.6458 28.1152 52.6387ZM31.8965 51.1885C31.9036 51.1598 31.8893 51.1455 31.8535 51.1455C31.8177 51.1383 31.8034 51.1491 31.8105 51.1777C31.8249 51.1992 31.8392 51.2135 31.8535 51.2207C31.8678 51.2207 31.8822 51.21 31.8965 51.1885ZM30.2422 52.1123C30.2493 52.0837 30.235 52.0693 30.1992 52.0693C30.1634 52.0622 30.1527 52.0729 30.167 52.1016C30.1742 52.123 30.1849 52.1374 30.1992 52.1445C30.2135 52.1445 30.2279 52.1338 30.2422 52.1123ZM27.8467 49.9854C27.818 49.971 27.8037 49.9818 27.8037 50.0176C27.8037 50.0462 27.818 50.0605 27.8467 50.0605C27.8682 50.0462 27.8789 50.0319 27.8789 50.0176C27.8789 50.0033 27.8682 49.9925 27.8467 49.9854ZM27.9219 49.749C27.9004 49.7347 27.8896 49.7454 27.8896 49.7812C27.8896 49.8171 27.9004 49.8314 27.9219 49.8242C27.9434 49.8171 27.9541 49.8063 27.9541 49.792C27.9541 49.7777 27.9434 49.7633 27.9219 49.749ZM29.6514 49.1045L29.7266 49.1152L29.6514 49.0293V49.1045ZM32.1973 56.334C32.1615 56.3268 32.1436 56.3519 32.1436 56.4092C32.1507 56.4593 32.1722 56.488 32.208 56.4951C32.251 56.5023 32.2689 56.4808 32.2617 56.4307C32.2617 56.3734 32.2402 56.3411 32.1973 56.334ZM27.1592 55.5498C27.1234 55.5426 27.1055 55.5677 27.1055 55.625C27.1126 55.6751 27.1341 55.7038 27.1699 55.7109C27.2129 55.7181 27.2308 55.6966 27.2236 55.6465C27.2236 55.5892 27.2021 55.557 27.1592 55.5498ZM38.8467 46.9775C38.904 46.9632 38.9434 46.9847 38.9648 47.042C38.9863 47.0993 38.9756 47.1279 38.9326 47.1279C38.9613 47.1279 38.9756 47.1279 38.9756 47.1279C38.9756 47.1279 38.972 47.1315 38.9648 47.1387C38.9577 47.1458 38.9469 47.1602 38.9326 47.1816C38.9255 47.196 38.9255 47.2174 38.9326 47.2461C38.9469 47.3034 38.9684 47.3428 38.9971 47.3643C39.0329 47.3857 39.0579 47.4395 39.0723 47.5254C39.0866 47.6257 39.083 47.751 39.0615 47.9014C39.0472 48.0446 39.0007 48.1556 38.9219 48.2344L39.0078 48.2988C39.0078 48.3132 39.0186 48.3704 39.04 48.4707C39.0615 48.5638 39.0794 48.6354 39.0938 48.6855C39.0579 48.7572 39.0365 48.793 39.0293 48.793C39.0293 48.7858 39.0257 48.7715 39.0186 48.75C39.0186 48.7285 39.0114 48.7106 38.9971 48.6963C38.9899 48.682 38.9684 48.7035 38.9326 48.7607C38.9613 48.7607 38.9971 48.7822 39.04 48.8252C39.0902 48.861 39.1152 48.8896 39.1152 48.9111C39.1152 48.9183 39.1224 48.9577 39.1367 49.0293C39.151 49.1009 39.1618 49.1833 39.1689 49.2764C39.1833 49.3623 39.1904 49.4447 39.1904 49.5234C39.1976 49.6022 39.1976 49.6488 39.1904 49.6631C39.1833 49.6774 39.1582 49.7061 39.1152 49.749C39.0794 49.792 39.0615 49.8206 39.0615 49.835C39.0544 49.8421 39.0544 49.8672 39.0615 49.9102C39.0758 49.9531 39.083 49.9818 39.083 49.9961C39.083 50.0104 39.0723 50.0534 39.0508 50.125C39.0365 50.1895 39.0329 50.2288 39.04 50.2432C39.04 50.2575 39.0436 50.2861 39.0508 50.3291C39.0579 50.3649 39.0651 50.4043 39.0723 50.4473C39.0866 50.4902 39.0973 50.5332 39.1045 50.5762C39.1188 50.6191 39.126 50.6478 39.126 50.6621L39.0615 51.1777V51.2207C39.0758 51.2852 39.1081 51.3424 39.1582 51.3926C39.2155 51.4355 39.2549 51.5251 39.2764 51.6611C39.2907 51.7399 39.2907 51.8044 39.2764 51.8545C39.262 51.8975 39.2227 51.9548 39.1582 52.0264C39.1725 52.0908 39.1833 52.1517 39.1904 52.209C39.1976 52.2591 39.2048 52.32 39.2119 52.3916C39.2119 52.4059 39.2119 52.4417 39.2119 52.499C39.2119 52.5492 39.2119 52.6064 39.2119 52.6709C39.2119 52.7354 39.2119 52.7962 39.2119 52.8535C39.2119 52.9036 39.2119 52.9359 39.2119 52.9502C39.2119 52.9717 39.2155 53.0254 39.2227 53.1113C39.2298 53.1973 39.237 53.2904 39.2441 53.3906C39.2513 53.4837 39.2585 53.5732 39.2656 53.6592C39.2728 53.7451 39.2764 53.7988 39.2764 53.8203C39.2764 53.8418 39.262 53.8848 39.2334 53.9492C39.2119 54.0137 39.1868 54.0853 39.1582 54.1641C39.1367 54.2357 39.1117 54.3037 39.083 54.3682C39.0615 54.4326 39.0508 54.472 39.0508 54.4863V54.5938C39.0651 54.6725 39.0902 54.7262 39.126 54.7549C39.1618 54.7764 39.1868 54.8265 39.2012 54.9053C39.2083 54.9626 39.2298 55.0234 39.2656 55.0879C39.3014 55.1523 39.3158 55.1917 39.3086 55.2061C39.3086 55.2132 39.305 55.2383 39.2979 55.2812C39.2979 55.3171 39.2943 55.3564 39.2871 55.3994C39.2799 55.4424 39.2728 55.4818 39.2656 55.5176C39.2585 55.5534 39.2549 55.5749 39.2549 55.582C39.2406 55.625 39.2406 55.6644 39.2549 55.7002C39.2692 55.7288 39.2728 55.7718 39.2656 55.8291C39.2513 55.8363 39.237 55.847 39.2227 55.8613C39.2083 55.8757 39.2012 55.8864 39.2012 55.8936L39.1904 55.9043C39.1904 55.9115 39.194 55.9329 39.2012 55.9688C39.2083 55.9974 39.2119 56.0296 39.2119 56.0654C39.2191 56.1012 39.2227 56.1335 39.2227 56.1621C39.2298 56.1908 39.2334 56.2087 39.2334 56.2158C39.2406 56.2301 39.2298 56.2194 39.2012 56.1836C39.1725 56.1478 39.1582 56.1335 39.1582 56.1406C39.1582 56.1549 39.1654 56.1943 39.1797 56.2588C39.194 56.3232 39.2012 56.3626 39.2012 56.377C39.1868 56.4056 39.1546 56.4521 39.1045 56.5166C39.0544 56.5811 39.0186 56.6204 38.9971 56.6348C38.9756 56.6491 38.9219 56.6455 38.8359 56.624C38.75 56.6025 38.6927 56.5918 38.6641 56.5918L38.707 56.8281H38.6211C38.5996 56.821 38.5566 56.8138 38.4922 56.8066C38.4349 56.7923 38.3955 56.7816 38.374 56.7744C38.374 56.7601 38.3669 56.7207 38.3525 56.6562C38.3454 56.5918 38.3382 56.5524 38.3311 56.5381C38.3167 56.4736 38.306 56.4056 38.2988 56.334C38.2917 56.2552 38.3096 56.1872 38.3525 56.1299C38.3597 56.0798 38.3561 56.0117 38.3418 55.9258C38.3346 55.8327 38.3239 55.7396 38.3096 55.6465C38.2952 55.5462 38.2809 55.4531 38.2666 55.3672C38.2594 55.2741 38.2594 55.1989 38.2666 55.1416C38.2666 55.1273 38.2523 55.113 38.2236 55.0986C38.195 55.0771 38.1628 55.1165 38.127 55.2168C38.0911 55.2168 38.0518 55.2347 38.0088 55.2705C37.973 55.3063 37.9372 55.3457 37.9014 55.3887C37.8727 55.4245 37.8441 55.4603 37.8154 55.4961C37.7939 55.5319 37.7796 55.5534 37.7725 55.5605C37.6077 55.7324 37.4251 55.8828 37.2246 56.0117C37.0312 56.1406 36.8057 56.2552 36.5479 56.3555C36.4906 56.377 36.444 56.3984 36.4082 56.4199C36.3796 56.4342 36.3545 56.4486 36.333 56.4629C36.3115 56.4772 36.29 56.488 36.2686 56.4951C36.2471 56.5023 36.2148 56.5094 36.1719 56.5166C36.1432 56.5166 36.1003 56.5238 36.043 56.5381C35.9857 56.5524 35.9248 56.5703 35.8604 56.5918C35.8031 56.6061 35.7458 56.624 35.6885 56.6455C35.6312 56.667 35.5882 56.6849 35.5596 56.6992C35.5166 56.7064 35.445 56.7279 35.3447 56.7637C35.2445 56.7995 35.1729 56.821 35.1299 56.8281C35.0296 56.8353 34.9473 56.8496 34.8828 56.8711C34.8255 56.8854 34.7682 56.8997 34.7109 56.9141C34.6536 56.9212 34.5928 56.9212 34.5283 56.9141C34.4639 56.9069 34.3851 56.8818 34.292 56.8389C34.2777 56.8317 34.2454 56.7959 34.1953 56.7314C34.1523 56.6598 34.1237 56.6204 34.1094 56.6133C34.1022 56.6061 34.0807 56.6025 34.0449 56.6025C34.0163 56.5954 33.9805 56.5918 33.9375 56.5918C33.9017 56.5846 33.8659 56.5811 33.8301 56.5811C33.8014 56.5739 33.7835 56.5703 33.7764 56.5703C33.7692 56.5632 33.7298 56.5309 33.6582 56.4736C33.5866 56.4163 33.5365 56.377 33.5078 56.3555C33.472 56.3268 33.4255 56.2874 33.3682 56.2373C33.318 56.1872 33.2643 56.137 33.207 56.0869C33.1569 56.0296 33.1068 55.9723 33.0566 55.915C33.0065 55.8577 32.9671 55.8076 32.9385 55.7646C32.9313 55.7575 32.9277 55.7503 32.9277 55.7432C32.9206 55.736 32.917 55.7288 32.917 55.7217C32.874 55.5355 32.849 55.4102 32.8418 55.3457C32.8418 55.2741 32.8382 55.2347 32.8311 55.2275L32.7021 54.6045C32.7165 54.5973 32.7415 54.5723 32.7773 54.5293C32.8132 54.4792 32.8346 54.4469 32.8418 54.4326C32.8418 54.4183 32.8311 54.3932 32.8096 54.3574C32.7881 54.3216 32.7773 54.2965 32.7773 54.2822L32.9277 54.0352C32.9277 54.028 32.9242 54.0137 32.917 53.9922C32.917 53.9707 32.917 53.9528 32.917 53.9385C32.917 53.9242 32.8991 53.8883 32.8633 53.8311C32.8346 53.7666 32.8167 53.7272 32.8096 53.7129C32.8024 53.7057 32.7988 53.6986 32.7988 53.6914V53.6699V53.6377C32.806 53.6234 32.8275 53.609 32.8633 53.5947C32.9062 53.5732 32.9349 53.5589 32.9492 53.5518V53.498C32.9492 53.498 32.9456 53.4909 32.9385 53.4766L32.9277 53.4658C32.9206 53.4587 32.9062 53.4479 32.8848 53.4336C32.8704 53.4121 32.8561 53.3978 32.8418 53.3906L32.9922 53.2617C32.9421 53.1471 32.9242 53.0182 32.9385 52.875C32.96 52.7318 32.9922 52.5993 33.0352 52.4775C33.0781 52.3558 33.1211 52.2555 33.1641 52.1768C33.207 52.098 33.2285 52.0658 33.2285 52.0801C33.2285 52.0801 33.2249 52.0729 33.2178 52.0586V52.0371C33.2106 52.0371 33.1927 52.0299 33.1641 52.0156C33.1426 51.9941 33.1283 51.9798 33.1211 51.9727V51.9297C33.1139 51.8867 33.1211 51.8438 33.1426 51.8008C33.1712 51.7578 33.1963 51.7148 33.2178 51.6719C33.2464 51.6289 33.2715 51.5931 33.293 51.5645C33.3145 51.5286 33.3145 51.5 33.293 51.4785L33.8301 50.791C33.8301 50.6979 33.8444 50.6263 33.873 50.5762C33.9017 50.5189 33.9375 50.4723 33.9805 50.4365C34.0234 50.4007 34.0736 50.3649 34.1309 50.3291C34.1882 50.2933 34.2454 50.2467 34.3027 50.1895C34.4889 49.9889 34.6823 49.8099 34.8828 49.6523C35.0905 49.4948 35.3483 49.4017 35.6562 49.373C35.6491 49.3372 35.6491 49.3158 35.6562 49.3086C35.6706 49.2943 35.6849 49.2871 35.6992 49.2871C35.7135 49.2799 35.7243 49.2692 35.7314 49.2549C35.7386 49.2406 35.7386 49.2083 35.7314 49.1582C35.7816 49.151 35.8138 49.1439 35.8281 49.1367C35.8496 49.1296 35.8639 49.126 35.8711 49.126C35.8854 49.1188 35.8997 49.1117 35.9141 49.1045C35.9284 49.0973 35.957 49.0938 36 49.0938H36.0215C36.0286 49.0938 36.0358 49.0902 36.043 49.083C36.0501 49.083 36.0716 49.0723 36.1074 49.0508C36.1504 49.0221 36.1719 49.0042 36.1719 48.9971H36.2148H36.2363C36.2435 48.9971 36.2507 48.9935 36.2578 48.9863C36.265 48.9935 36.2793 49.0078 36.3008 49.0293C36.3294 49.0508 36.3473 49.0615 36.3545 49.0615C36.3688 49.0615 36.3545 49.0687 36.3115 49.083C36.2686 49.0902 36.2292 49.0973 36.1934 49.1045H36.2148C36.2721 49.0973 36.3115 49.1081 36.333 49.1367C36.3617 49.1654 36.4154 49.1761 36.4941 49.1689C36.5013 49.1689 36.5085 49.1689 36.5156 49.1689C36.5228 49.1618 36.5335 49.1582 36.5479 49.1582C36.5622 49.1582 36.5765 49.1546 36.5908 49.1475C36.6051 49.1331 36.6195 49.0973 36.6338 49.04C36.6481 48.9756 36.6481 48.929 36.6338 48.9004C36.6553 48.9147 36.6982 48.9398 36.7627 48.9756C36.8271 49.0114 36.8701 49.0329 36.8916 49.04C36.9059 49.0472 36.9453 49.0436 37.0098 49.0293C37.0742 49.015 37.1136 49.0114 37.1279 49.0186C37.1423 49.0257 37.1709 49.0508 37.2139 49.0938C37.264 49.1367 37.2962 49.1618 37.3105 49.1689C37.3249 49.1761 37.3643 49.1725 37.4287 49.1582C37.4932 49.1439 37.5326 49.1403 37.5469 49.1475C37.5684 49.1475 37.6042 49.1367 37.6543 49.1152C37.7116 49.0866 37.7689 49.083 37.8262 49.1045C37.8333 49.1117 37.8477 49.1224 37.8691 49.1367C37.8906 49.151 37.9049 49.1618 37.9121 49.1689L37.9766 49.083L38.0732 48.8252L37.9873 48.5889C37.973 48.4743 37.9694 48.3561 37.9766 48.2344C37.9837 48.1126 37.9945 47.9945 38.0088 47.8799C38.0231 47.7653 38.0339 47.6543 38.041 47.5469C38.0553 47.4395 38.0553 47.3356 38.041 47.2354L38.0303 47.2031C38.0303 47.1888 38.0374 47.1423 38.0518 47.0635C38.0732 46.9847 38.0804 46.9417 38.0732 46.9346C38.0661 46.9274 38.0625 46.9202 38.0625 46.9131C38.0553 46.9059 38.0518 46.8988 38.0518 46.8916C38.0446 46.8271 38.0553 46.7591 38.084 46.6875C38.1198 46.6159 38.1628 46.5479 38.2129 46.4834C38.263 46.4189 38.3167 46.3652 38.374 46.3223C38.4313 46.2793 38.4814 46.2578 38.5244 46.2578C38.5531 46.2507 38.5889 46.2471 38.6318 46.2471C38.682 46.2471 38.7106 46.2471 38.7178 46.2471C38.7321 46.2471 38.7715 46.2757 38.8359 46.333C38.9004 46.3903 38.9505 46.4333 38.9863 46.4619V46.4941V46.5156C38.9863 46.5228 38.9899 46.5299 38.9971 46.5371L38.9541 46.5801C38.9398 46.5944 38.929 46.6087 38.9219 46.623C38.9219 46.6302 38.9111 46.6839 38.8896 46.7842C38.8753 46.8773 38.861 46.9417 38.8467 46.9775ZM34.0986 55.5713C34.1416 55.7217 34.1989 55.8255 34.2705 55.8828C34.3493 55.9401 34.4352 55.9759 34.5283 55.9902C34.6214 55.9974 34.7217 55.9938 34.8291 55.9795C34.9365 55.958 35.0439 55.9437 35.1514 55.9365C35.18 55.9294 35.2158 55.9258 35.2588 55.9258C35.3089 55.9186 35.3376 55.915 35.3447 55.915C35.3662 55.9079 35.4235 55.8971 35.5166 55.8828C35.6169 55.8613 35.6777 55.847 35.6992 55.8398C35.7064 55.8398 35.735 55.8291 35.7852 55.8076C35.8353 55.7861 35.889 55.7611 35.9463 55.7324C36.0107 55.7038 36.068 55.6787 36.1182 55.6572C36.1683 55.6286 36.2005 55.6107 36.2148 55.6035C36.4512 55.5033 36.6374 55.4066 36.7734 55.3135C36.9167 55.2204 37.042 55.1237 37.1494 55.0234C37.2568 54.916 37.3571 54.7979 37.4502 54.6689C37.5433 54.5329 37.6615 54.3753 37.8047 54.1963C37.8333 54.1605 37.8691 54.1139 37.9121 54.0566C37.9551 53.9922 37.9945 53.9277 38.0303 53.8633C38.0732 53.7988 38.109 53.7415 38.1377 53.6914C38.1735 53.6413 38.1914 53.6126 38.1914 53.6055C38.1914 53.5983 38.2021 53.541 38.2236 53.4336C38.2451 53.319 38.263 53.1937 38.2773 53.0576C38.2988 52.9215 38.3167 52.7891 38.3311 52.6602C38.3454 52.5312 38.349 52.4453 38.3418 52.4023C38.3418 52.388 38.3382 52.3092 38.3311 52.166C38.3239 52.0228 38.3132 51.8652 38.2988 51.6934C38.2917 51.5215 38.2845 51.3639 38.2773 51.2207C38.2702 51.0775 38.2666 50.9951 38.2666 50.9736C38.2666 50.9665 38.2702 50.9342 38.2773 50.877C38.2917 50.8125 38.306 50.766 38.3203 50.7373C38.3132 50.7301 38.3167 50.7051 38.3311 50.6621C38.3525 50.612 38.3633 50.5833 38.3633 50.5762V50.5332C38.349 50.4616 38.3096 50.4258 38.2451 50.4258C38.1807 50.4258 38.1305 50.4007 38.0947 50.3506C38.0876 50.3434 38.084 50.3184 38.084 50.2754C38.084 50.2324 38.0804 50.2074 38.0732 50.2002C38.0589 50.1859 38.041 50.2038 38.0195 50.2539C38.0052 50.304 37.9909 50.3219 37.9766 50.3076C37.9551 50.3005 37.9193 50.279 37.8691 50.2432C37.8262 50.2002 37.7975 50.1715 37.7832 50.1572C37.776 50.1572 37.7725 50.1465 37.7725 50.125C37.7796 50.1035 37.7796 50.0892 37.7725 50.082C37.7581 50.0749 37.7295 50.0641 37.6865 50.0498C37.6436 50.0283 37.6149 50.0176 37.6006 50.0176C37.4932 49.9603 37.3965 49.9209 37.3105 49.8994C37.2246 49.8779 37.1387 49.8672 37.0527 49.8672C36.9668 49.86 36.8773 49.8636 36.7842 49.8779C36.6911 49.8923 36.5837 49.903 36.4619 49.9102L36.4297 49.7061C36.4225 49.7061 36.4082 49.7096 36.3867 49.7168C36.3724 49.7168 36.3617 49.7204 36.3545 49.7275C36.3545 49.7347 36.3438 49.7526 36.3223 49.7812C36.3079 49.8027 36.29 49.8278 36.2686 49.8564C36.2471 49.8851 36.2256 49.9137 36.2041 49.9424C36.1826 49.9639 36.1683 49.9782 36.1611 49.9854C36.111 50.014 36.0824 50.0247 36.0752 50.0176C36.0752 50.0319 36.0716 50.0498 36.0645 50.0713C36.0573 50.0856 36.0465 50.1071 36.0322 50.1357C36.0107 50.0785 35.9678 50.0498 35.9033 50.0498C35.846 50.0426 35.7995 50.0426 35.7637 50.0498C35.778 50.1429 35.8174 50.2002 35.8818 50.2217C35.8747 50.236 35.8532 50.2539 35.8174 50.2754C35.7816 50.2969 35.7565 50.3112 35.7422 50.3184C35.735 50.3184 35.7064 50.3363 35.6562 50.3721C35.6061 50.4079 35.5488 50.4473 35.4844 50.4902C35.4271 50.526 35.3734 50.5618 35.3232 50.5977C35.2803 50.6335 35.2552 50.6549 35.248 50.6621C35.1979 50.6908 35.1549 50.7337 35.1191 50.791C35.0905 50.8411 35.0583 50.8984 35.0225 50.9629C34.9867 51.0273 34.9437 51.0954 34.8936 51.167C34.8506 51.2314 34.7933 51.2923 34.7217 51.3496C34.7217 51.3568 34.7181 51.3639 34.7109 51.3711C34.7109 51.3783 34.7109 51.3854 34.7109 51.3926L34.7324 51.4248C34.7324 51.4391 34.7432 51.4535 34.7646 51.4678C34.7933 51.4821 34.8112 51.4928 34.8184 51.5C34.7969 51.5215 34.7611 51.5645 34.7109 51.6289C34.6608 51.6934 34.6286 51.7363 34.6143 51.7578L34.4316 52.0908L34.002 52.5635L33.9912 53.251C33.9769 53.3226 33.9626 53.3835 33.9482 53.4336C33.9411 53.4766 33.9339 53.5195 33.9268 53.5625C33.9196 53.5983 33.9124 53.6377 33.9053 53.6807C33.8981 53.7165 33.8874 53.763 33.873 53.8203C33.873 53.8346 33.8766 53.8633 33.8838 53.9062C33.8981 53.9492 33.9017 53.9743 33.8945 53.9814C33.8945 53.9886 33.891 53.9958 33.8838 54.0029C33.8766 54.0029 33.8695 54.0101 33.8623 54.0244C33.848 54.0387 33.8372 54.0531 33.8301 54.0674C33.8301 54.0817 33.8372 54.1104 33.8516 54.1533C33.8659 54.1891 33.8695 54.2142 33.8623 54.2285C33.8623 54.2428 33.8659 54.2751 33.873 54.3252C33.8802 54.3753 33.8874 54.4326 33.8945 54.4971C33.9089 54.5544 33.9196 54.6117 33.9268 54.6689C33.9339 54.7191 33.9339 54.7513 33.9268 54.7656C33.9124 54.8014 33.9089 54.8659 33.916 54.959C33.9303 55.0521 33.9411 55.1165 33.9482 55.1523C33.9482 55.1595 33.9518 55.1667 33.959 55.1738C33.959 55.181 33.9626 55.1882 33.9697 55.1953C33.9769 55.1953 34.002 55.2025 34.0449 55.2168C34.0951 55.224 34.1273 55.2347 34.1416 55.249V55.2812C34.1416 55.2884 34.1416 55.292 34.1416 55.292C34.1488 55.292 34.1523 55.2956 34.1523 55.3027V55.3242C34.1523 55.3385 34.1416 55.3815 34.1201 55.4531C34.1058 55.5176 34.0986 55.557 34.0986 55.5713ZM38.0088 49.3193C37.973 49.3265 37.9587 49.3587 37.9658 49.416C37.9801 49.4661 38.0052 49.4876 38.041 49.4805C38.0911 49.4017 38.1234 49.3516 38.1377 49.3301C38.152 49.3014 38.152 49.2871 38.1377 49.2871C38.1234 49.2871 38.1019 49.2943 38.0732 49.3086C38.0518 49.3158 38.0303 49.3193 38.0088 49.3193ZM38.2344 47.6113C38.1986 47.6185 38.1842 47.6507 38.1914 47.708C38.2057 47.7581 38.2308 47.7796 38.2666 47.7725C38.3024 47.7653 38.3132 47.7367 38.2988 47.6865C38.2917 47.6292 38.2702 47.6042 38.2344 47.6113ZM39.0938 54.7979C39.0579 54.805 39.0436 54.8372 39.0508 54.8945C39.0579 54.9447 39.0794 54.9661 39.1152 54.959C39.151 54.9518 39.1654 54.9232 39.1582 54.873C39.151 54.8158 39.1296 54.7907 39.0938 54.7979ZM34.0234 51.5752C33.9876 51.5824 33.9733 51.611 33.9805 51.6611C33.9876 51.7113 34.0091 51.7327 34.0449 51.7256C34.0879 51.7184 34.1058 51.6898 34.0986 51.6396C34.0915 51.5895 34.0664 51.568 34.0234 51.5752ZM34.7539 51.1025C34.7181 51.1097 34.7038 51.1419 34.7109 51.1992C34.7181 51.2493 34.7396 51.2708 34.7754 51.2637C34.8112 51.2637 34.8255 51.2386 34.8184 51.1885C34.8112 51.1312 34.7897 51.1025 34.7539 51.1025ZM39.0508 54.0029C39.015 54.0101 39.0007 54.0387 39.0078 54.0889C39.015 54.139 39.0365 54.1605 39.0723 54.1533C39.1152 54.1533 39.1331 54.1283 39.126 54.0781C39.1188 54.028 39.0938 54.0029 39.0508 54.0029ZM39.0186 56.2373C38.9827 56.2445 38.9684 56.2731 38.9756 56.3232C38.9827 56.3734 39.0042 56.3949 39.04 56.3877C39.0758 56.3805 39.0902 56.3519 39.083 56.3018C39.0758 56.2516 39.0544 56.2301 39.0186 56.2373ZM38.6426 48.4922C38.6283 48.4922 38.6175 48.5029 38.6104 48.5244C38.6104 48.5387 38.6104 48.5566 38.6104 48.5781C38.6175 48.5996 38.6247 48.6211 38.6318 48.6426C38.6462 48.6569 38.6605 48.6605 38.6748 48.6533C38.6891 48.639 38.6927 48.6139 38.6855 48.5781C38.6855 48.5352 38.6712 48.5065 38.6426 48.4922ZM33.4971 53.0146L33.583 53.0039L33.5615 52.918L33.4756 52.9287L33.4971 53.0146ZM38.5781 48.6533C38.5423 48.6462 38.528 48.6605 38.5352 48.6963C38.5423 48.7249 38.5602 48.7357 38.5889 48.7285C38.6104 48.7142 38.6175 48.6963 38.6104 48.6748C38.6104 48.6533 38.5996 48.6462 38.5781 48.6533ZM35.6885 49.9209C35.6598 49.9137 35.6455 49.9281 35.6455 49.9639C35.6527 49.9997 35.6706 50.0104 35.6992 49.9961C35.7207 49.9889 35.7279 49.9782 35.7207 49.9639C35.7207 49.9424 35.71 49.9281 35.6885 49.9209ZM35.1836 50.2646C35.1908 50.236 35.1764 50.2253 35.1406 50.2324C35.1048 50.2324 35.0941 50.2432 35.1084 50.2646C35.1227 50.2933 35.137 50.3076 35.1514 50.3076C35.1729 50.3076 35.1836 50.2933 35.1836 50.2646ZM34.582 51.5215C34.5605 51.5143 34.5498 51.5286 34.5498 51.5645C34.557 51.6003 34.5713 51.611 34.5928 51.5967C34.6143 51.5824 34.6214 51.568 34.6143 51.5537C34.6143 51.5394 34.6035 51.5286 34.582 51.5215ZM38.9541 48.4707C38.9613 48.4492 38.9469 48.4421 38.9111 48.4492C38.8753 48.4492 38.8646 48.4564 38.8789 48.4707C38.8932 48.4922 38.9076 48.5029 38.9219 48.5029C38.9434 48.5029 38.9541 48.4922 38.9541 48.4707ZM33.5723 51.7686L33.6582 51.7578L33.6475 51.6826L33.5723 51.7686ZM38.4277 48.8682L38.5029 48.8574L38.417 48.793L38.4277 48.8682ZM41.1348 56.3662C41.1204 56.359 41.0918 56.3698 41.0488 56.3984C41.013 56.4199 40.9915 56.4378 40.9844 56.4521C40.9987 56.4163 40.9915 56.3662 40.9629 56.3018C40.9342 56.2301 40.8949 56.1585 40.8447 56.0869C40.8018 56.0081 40.7552 55.9365 40.7051 55.8721C40.6549 55.8076 40.6156 55.7611 40.5869 55.7324C40.5726 55.7253 40.5439 55.7145 40.501 55.7002C40.458 55.6787 40.4329 55.6644 40.4258 55.6572C40.4186 55.6501 40.4186 55.625 40.4258 55.582C40.4329 55.5391 40.4329 55.5104 40.4258 55.4961C40.4186 55.4818 40.3936 55.4567 40.3506 55.4209C40.3076 55.3779 40.279 55.3529 40.2646 55.3457V55.3027C40.2646 55.2454 40.279 55.1989 40.3076 55.1631C40.3363 55.1273 40.3506 55.0807 40.3506 55.0234C40.3506 54.9876 40.3434 54.9232 40.3291 54.8301C40.3148 54.737 40.2969 54.6367 40.2754 54.5293C40.2539 54.4219 40.2324 54.3216 40.2109 54.2285C40.1966 54.1283 40.1859 54.0602 40.1787 54.0244C40.1715 54.0101 40.1715 53.9707 40.1787 53.9062C40.1859 53.8418 40.1859 53.8024 40.1787 53.7881C40.1787 53.7738 40.1644 53.7451 40.1357 53.7021C40.1143 53.6592 40.1035 53.6341 40.1035 53.627V53.584C40.1035 53.498 40.1178 53.4157 40.1465 53.3369C40.1751 53.251 40.1895 53.165 40.1895 53.0791C40.1895 53.0576 40.1859 53.029 40.1787 52.9932C40.1787 52.9502 40.1787 52.9251 40.1787 52.918C40.1787 52.9036 40.1644 52.8643 40.1357 52.7998C40.1143 52.7354 40.1035 52.696 40.1035 52.6816C40.1035 52.6673 40.1143 52.6423 40.1357 52.6064C40.1644 52.5635 40.1787 52.5348 40.1787 52.5205C40.1859 52.4489 40.1859 52.3844 40.1787 52.3271C40.1787 52.2699 40.1787 52.2197 40.1787 52.1768C40.1787 52.1266 40.1895 52.0801 40.2109 52.0371C40.2324 51.987 40.2754 51.9368 40.3398 51.8867C40.3255 51.8796 40.2969 51.8652 40.2539 51.8438C40.2181 51.8151 40.1751 51.7865 40.125 51.7578C40.082 51.722 40.0426 51.6898 40.0068 51.6611C39.971 51.6253 39.9495 51.5967 39.9424 51.5752C39.9281 51.5394 39.9352 51.5 39.9639 51.457C39.9997 51.4141 40.0391 51.3747 40.082 51.3389C40.125 51.2959 40.1715 51.2601 40.2217 51.2314C40.2718 51.2028 40.3112 51.1849 40.3398 51.1777C40.3542 51.1921 40.3685 51.2207 40.3828 51.2637C40.4043 51.2995 40.415 51.3245 40.415 51.3389C40.415 51.3532 40.4043 51.3711 40.3828 51.3926C40.3685 51.4069 40.3542 51.4141 40.3398 51.4141L40.3721 51.4248C40.3936 51.4248 40.4329 51.3818 40.4902 51.2959C40.5547 51.2028 40.6156 51.1025 40.6729 50.9951C40.7301 50.8805 40.7803 50.7767 40.8232 50.6836C40.8734 50.5833 40.8984 50.526 40.8984 50.5117C40.8984 50.5117 40.8949 50.5046 40.8877 50.4902V50.4688C40.8805 50.4616 40.8662 50.4473 40.8447 50.4258C40.8304 50.4043 40.8197 50.3936 40.8125 50.3936C40.8053 50.3864 40.8018 50.3792 40.8018 50.3721V50.3506V50.3291C40.8018 50.3219 40.8053 50.3148 40.8125 50.3076C40.8411 50.2432 40.8841 50.1501 40.9414 50.0283C40.9987 49.8994 41.0596 49.7741 41.124 49.6523C41.1956 49.5306 41.2708 49.4196 41.3496 49.3193C41.4355 49.2119 41.5179 49.1475 41.5967 49.126C41.6253 49.1117 41.6826 49.1152 41.7686 49.1367C41.8617 49.1582 41.9189 49.1689 41.9404 49.1689C41.9404 49.1546 41.9333 49.1224 41.9189 49.0723C41.9118 49.015 41.9118 48.9792 41.9189 48.9648C41.9189 48.9577 41.9297 48.9469 41.9512 48.9326C41.9727 48.9111 41.987 48.8968 41.9941 48.8896C42.0658 48.7822 42.1338 48.6999 42.1982 48.6426C42.2699 48.5853 42.3415 48.5459 42.4131 48.5244C42.4919 48.5029 42.5778 48.4922 42.6709 48.4922C42.7712 48.485 42.8893 48.4814 43.0254 48.4814C43.1901 48.4814 43.3763 48.4922 43.584 48.5137C43.7917 48.5352 43.9743 48.5817 44.1318 48.6533C44.139 48.6533 44.1569 48.6676 44.1855 48.6963C44.2214 48.7178 44.2536 48.7428 44.2822 48.7715C44.318 48.793 44.3503 48.818 44.3789 48.8467C44.4147 48.8682 44.4362 48.8825 44.4434 48.8896C44.4577 48.8968 44.4971 48.9076 44.5615 48.9219C44.6331 48.9362 44.6725 48.9505 44.6797 48.9648C44.6868 48.972 44.694 48.9971 44.7012 49.04C44.7083 49.0758 44.7155 49.1152 44.7227 49.1582C44.7298 49.2012 44.737 49.2441 44.7441 49.2871C44.7513 49.3301 44.7585 49.3551 44.7656 49.3623C44.7656 49.3695 44.7764 49.3838 44.7979 49.4053C44.8122 49.4196 44.8265 49.4303 44.8408 49.4375C44.848 49.4518 44.848 49.4805 44.8408 49.5234C44.8337 49.5664 44.8337 49.5915 44.8408 49.5986C44.848 49.6058 44.873 49.6201 44.916 49.6416C44.9661 49.6559 44.9948 49.6667 45.002 49.6738C45.0163 49.6953 45.0413 49.749 45.0771 49.835C45.1201 49.9137 45.1452 49.9674 45.1523 49.9961H45.249C45.249 50.0104 45.2383 50.0426 45.2168 50.0928C45.1953 50.1429 45.1702 50.2002 45.1416 50.2646C45.113 50.3291 45.0843 50.39 45.0557 50.4473C45.027 50.4974 45.0091 50.5296 45.002 50.5439C45.0163 50.5296 45.0413 50.5225 45.0771 50.5225C45.113 50.5225 45.138 50.5296 45.1523 50.5439C45.1595 50.5511 45.1702 50.5833 45.1846 50.6406C45.2061 50.6979 45.224 50.7445 45.2383 50.7803V50.8232V50.8662C45.224 50.9307 45.2061 51.0059 45.1846 51.0918C45.1702 51.1777 45.1488 51.2673 45.1201 51.3604C45.0915 51.4463 45.0592 51.5322 45.0234 51.6182C44.9948 51.6969 44.959 51.7614 44.916 51.8115C44.8372 51.9189 44.7191 52.0085 44.5615 52.0801C44.404 52.1517 44.2321 52.209 44.0459 52.252C43.8669 52.2878 43.6878 52.3164 43.5088 52.3379C43.3298 52.3522 43.1829 52.3594 43.0684 52.3594H42.9395C42.875 52.3594 42.7855 52.3558 42.6709 52.3486C42.5563 52.3415 42.4382 52.3343 42.3164 52.3271C42.2018 52.3128 42.098 52.3021 42.0049 52.2949C41.9118 52.2878 41.8545 52.2842 41.833 52.2842C41.8258 52.2842 41.8079 52.2806 41.7793 52.2734C41.7507 52.2663 41.7184 52.2591 41.6826 52.252C41.6468 52.2376 41.611 52.2269 41.5752 52.2197C41.5465 52.2126 41.5286 52.209 41.5215 52.209H41.4248C41.4248 52.2591 41.4284 52.2949 41.4355 52.3164C41.4427 52.3379 41.4463 52.3594 41.4463 52.3809C41.4463 52.3952 41.4391 52.4131 41.4248 52.4346C41.4176 52.4489 41.3962 52.4775 41.3604 52.5205C41.3532 52.5348 41.3245 52.5635 41.2744 52.6064C41.2314 52.6423 41.21 52.6673 41.21 52.6816C41.2028 52.696 41.1992 52.7497 41.1992 52.8428C41.2064 52.9287 41.21 52.9788 41.21 52.9932C41.2028 53.0075 41.1885 53.0254 41.167 53.0469C41.1527 53.0684 41.1383 53.0791 41.124 53.0791C41.1383 53.1077 41.1527 53.1722 41.167 53.2725C41.1885 53.3656 41.2028 53.43 41.21 53.4658C41.21 53.473 41.21 53.5124 41.21 53.584C41.2171 53.6484 41.2207 53.7201 41.2207 53.7988C41.2279 53.8776 41.2314 53.9528 41.2314 54.0244C41.2386 54.0889 41.2422 54.1247 41.2422 54.1318L41.3174 54.207C41.346 54.2643 41.3675 54.3467 41.3818 54.4541C41.3962 54.5544 41.4105 54.6618 41.4248 54.7764C41.4391 54.8838 41.4535 54.9912 41.4678 55.0986C41.4821 55.1989 41.5036 55.2812 41.5322 55.3457C41.6182 55.5104 41.722 55.6429 41.8438 55.7432C41.9727 55.8434 42.1159 55.9222 42.2734 55.9795C42.431 56.0368 42.5921 56.0762 42.7568 56.0977C42.9287 56.1191 43.1006 56.1299 43.2725 56.1299C43.5374 56.1299 43.7559 56.1156 43.9277 56.0869C44.1068 56.0511 44.2643 56.001 44.4004 55.9365C44.5436 55.8649 44.6833 55.7754 44.8193 55.668C44.9626 55.5534 45.1309 55.4173 45.3242 55.2598C45.3314 55.2526 45.3493 55.2383 45.3779 55.2168C45.4137 55.1953 45.446 55.1738 45.4746 55.1523C45.5104 55.1237 45.5426 55.0986 45.5713 55.0771C45.6071 55.0485 45.6286 55.0306 45.6357 55.0234C45.6501 55.0091 45.6787 54.9697 45.7217 54.9053C45.7646 54.8408 45.7897 54.8014 45.7969 54.7871C45.8112 54.7728 45.8363 54.7477 45.8721 54.7119C45.915 54.6689 45.9437 54.6403 45.958 54.626C46.0654 54.7907 46.1191 54.9626 46.1191 55.1416C46.1191 55.2204 46.0977 55.2812 46.0547 55.3242C46.0189 55.36 46.0117 55.4173 46.0332 55.4961C46.0117 55.5176 45.9723 55.557 45.915 55.6143C45.8649 55.6644 45.8112 55.7181 45.7539 55.7754C45.6966 55.8327 45.6429 55.89 45.5928 55.9473C45.5426 55.9974 45.5068 56.0332 45.4854 56.0547C45.4782 56.0618 45.4639 56.0869 45.4424 56.1299C45.4209 56.1729 45.4066 56.1979 45.3994 56.2051C45.335 56.2982 45.249 56.3805 45.1416 56.4521C45.0413 56.5238 44.9339 56.5882 44.8193 56.6455C44.7048 56.7028 44.5866 56.7529 44.4648 56.7959C44.3431 56.8389 44.2357 56.8818 44.1426 56.9248H44.0566C44.0352 56.9248 43.9779 56.9284 43.8848 56.9355C43.7917 56.9427 43.6914 56.9535 43.584 56.9678C43.4766 56.9749 43.3763 56.9821 43.2832 56.9893C43.1901 56.9964 43.1328 57 43.1113 57C43.0827 57 43.0146 56.9964 42.9072 56.9893C42.7998 56.9821 42.6816 56.9749 42.5527 56.9678C42.431 56.9535 42.3164 56.9427 42.209 56.9355C42.1016 56.9284 42.0335 56.9248 42.0049 56.9248H41.6934C41.679 56.9176 41.6611 56.8926 41.6396 56.8496C41.6253 56.7995 41.6146 56.7708 41.6074 56.7637C41.5931 56.7422 41.5645 56.7135 41.5215 56.6777C41.4857 56.6348 41.4427 56.5918 41.3926 56.5488C41.3424 56.5059 41.2923 56.4665 41.2422 56.4307C41.1992 56.3949 41.1634 56.3734 41.1348 56.3662ZM41.0488 53.5518C41.013 53.5518 40.9951 53.5768 40.9951 53.627C40.9951 53.6771 41.013 53.7021 41.0488 53.7021C41.0846 53.7021 41.1025 53.6771 41.1025 53.627C41.1025 53.5768 41.0846 53.5518 41.0488 53.5518ZM42.1553 51.5752C42.1982 51.7041 42.277 51.8079 42.3916 51.8867V51.8545V51.8115C42.3844 51.7972 42.3701 51.7721 42.3486 51.7363C42.3271 51.6934 42.3164 51.6647 42.3164 51.6504V51.5967C42.3164 51.5824 42.32 51.568 42.3271 51.5537C42.3558 51.5537 42.4023 51.5573 42.4668 51.5645C42.5312 51.5645 42.5993 51.568 42.6709 51.5752C42.7497 51.5752 42.8213 51.5752 42.8857 51.5752C42.9502 51.5752 42.9967 51.5752 43.0254 51.5752C43.0326 51.5752 43.054 51.5716 43.0898 51.5645C43.1328 51.5573 43.1758 51.5501 43.2188 51.543C43.2617 51.5286 43.3011 51.5179 43.3369 51.5107C43.3799 51.4964 43.4085 51.4893 43.4229 51.4893H43.4551H43.498C43.5124 51.4964 43.5374 51.5107 43.5732 51.5322C43.6162 51.5465 43.6449 51.5609 43.6592 51.5752C43.6878 51.5609 43.738 51.5358 43.8096 51.5C43.8883 51.4642 43.9671 51.4248 44.0459 51.3818C44.1318 51.3389 44.2106 51.2995 44.2822 51.2637C44.361 51.2207 44.4147 51.1921 44.4434 51.1777C44.5436 51.1204 44.5973 51.0667 44.6045 51.0166C44.6117 50.9593 44.6152 50.8805 44.6152 50.7803C44.6152 50.6872 44.583 50.5726 44.5186 50.4365C44.4613 50.2933 44.3968 50.1572 44.3252 50.0283C44.2536 49.8923 44.1855 49.7777 44.1211 49.6846C44.0638 49.5843 44.0387 49.5306 44.0459 49.5234C43.9886 49.502 43.9134 49.4805 43.8203 49.459C43.7272 49.4375 43.6305 49.4124 43.5303 49.3838C43.4372 49.3551 43.3477 49.3229 43.2617 49.2871C43.1829 49.2441 43.1292 49.1904 43.1006 49.126C43.0719 49.2119 43.0075 49.2692 42.9072 49.2979C42.8141 49.3193 42.7318 49.3301 42.6602 49.3301C42.6602 49.3945 42.6423 49.4554 42.6064 49.5127C42.5778 49.57 42.542 49.6237 42.499 49.6738C42.4561 49.724 42.4167 49.7741 42.3809 49.8242C42.3522 49.8743 42.3379 49.9245 42.3379 49.9746C42.2663 49.9746 42.2161 49.9639 42.1875 49.9424C42.166 49.9209 42.1159 49.9102 42.0371 49.9102H41.9189L42.1553 50.1465H41.9941C41.9798 50.1465 41.9619 50.1895 41.9404 50.2754C41.9261 50.3542 41.9189 50.4186 41.9189 50.4688C41.9189 50.4759 41.9297 50.4902 41.9512 50.5117C41.9727 50.5332 41.987 50.5439 41.9941 50.5439V50.5654C41.9941 50.5726 41.9977 50.5798 42.0049 50.5869C42.0049 50.5941 42.0013 50.5977 41.9941 50.5977C41.9941 50.5977 41.9941 50.6012 41.9941 50.6084V50.6299C41.987 50.6442 41.9583 50.6836 41.9082 50.748C41.8652 50.8125 41.8402 50.8519 41.833 50.8662C41.833 50.8734 41.833 50.8984 41.833 50.9414C41.8402 50.9844 41.8402 51.0094 41.833 51.0166C41.7972 51.0954 41.7471 51.1527 41.6826 51.1885C41.6253 51.2171 41.5967 51.278 41.5967 51.3711C41.5967 51.4141 41.6038 51.4463 41.6182 51.4678C41.6396 51.4821 41.6611 51.4893 41.6826 51.4893C41.7113 51.4893 41.7363 51.4893 41.7578 51.4893C41.7865 51.4821 41.8115 51.4821 41.833 51.4893C41.8473 51.4964 41.8724 51.5251 41.9082 51.5752C41.9512 51.6182 41.9798 51.6432 41.9941 51.6504C42.0085 51.6576 42.0335 51.6504 42.0693 51.6289C42.1123 51.6074 42.141 51.5895 42.1553 51.5752ZM42.7031 51.7363C42.6673 51.7363 42.6494 51.7614 42.6494 51.8115C42.6494 51.8617 42.6673 51.8867 42.7031 51.8867C42.7461 51.8867 42.7676 51.8617 42.7676 51.8115C42.7676 51.7614 42.7461 51.7363 42.7031 51.7363ZM41.3604 51.3389C41.3245 51.3389 41.3066 51.3639 41.3066 51.4141C41.3066 51.4642 41.3245 51.4893 41.3604 51.4893C41.4033 51.4893 41.4248 51.4642 41.4248 51.4141C41.4248 51.3639 41.4033 51.3389 41.3604 51.3389ZM41.5967 50.9414C41.5752 50.9342 41.5645 50.9486 41.5645 50.9844C41.5645 51.0202 41.5752 51.0309 41.5967 51.0166C41.6253 51.0094 41.6396 50.9987 41.6396 50.9844C41.6396 50.9629 41.6253 50.9486 41.5967 50.9414ZM41.833 50.6299C41.7972 50.6299 41.7793 50.6549 41.7793 50.7051C41.7793 50.7552 41.7972 50.7803 41.833 50.7803C41.876 50.7803 41.8975 50.7552 41.8975 50.7051C41.8975 50.6549 41.876 50.6299 41.833 50.6299ZM40.9736 50.2324C40.9307 50.2324 40.9092 50.2611 40.9092 50.3184C40.9092 50.3685 40.9307 50.3936 40.9736 50.3936C41.0094 50.3936 41.0273 50.3685 41.0273 50.3184C41.0273 50.2611 41.0094 50.2324 40.9736 50.2324ZM44.6045 49.6738C44.5615 49.6738 44.54 49.7025 44.54 49.7598C44.54 49.8099 44.5615 49.835 44.6045 49.835C44.6403 49.835 44.6582 49.8099 44.6582 49.7598C44.6582 49.7025 44.6403 49.6738 44.6045 49.6738ZM42.1553 49.5234C42.1195 49.5234 42.1016 49.5485 42.1016 49.5986C42.1016 49.6488 42.1195 49.6738 42.1553 49.6738C42.1911 49.6738 42.209 49.6488 42.209 49.5986C42.209 49.5485 42.1911 49.5234 42.1553 49.5234ZM42.4668 49.2871C42.4453 49.2728 42.4346 49.2835 42.4346 49.3193C42.4346 49.3551 42.4453 49.3695 42.4668 49.3623C42.4954 49.348 42.5098 49.3337 42.5098 49.3193C42.5098 49.305 42.4954 49.2943 42.4668 49.2871ZM42.3916 48.8037C42.3988 48.7822 42.3844 48.7715 42.3486 48.7715C42.32 48.7715 42.3092 48.7822 42.3164 48.8037C42.3164 48.8324 42.3271 48.8467 42.3486 48.8467C42.3701 48.8467 42.3844 48.8324 42.3916 48.8037ZM46.6777 48.6533C46.7207 48.596 46.7744 48.5459 46.8389 48.5029C46.9105 48.4528 46.9857 48.4313 47.0645 48.4385C47.1217 48.4456 47.1934 48.4814 47.2793 48.5459C47.3652 48.6104 47.4261 48.6676 47.4619 48.7178L47.3867 48.793H47.29C47.3044 48.8359 47.3151 48.8825 47.3223 48.9326C47.3366 48.9756 47.3688 48.9971 47.4189 48.9971C47.4189 49.0472 47.4261 49.0973 47.4404 49.1475C47.4548 49.1904 47.4368 49.2477 47.3867 49.3193L47.4189 49.4053C47.4189 49.4053 47.4261 49.4089 47.4404 49.416H47.4619C47.4762 49.4232 47.4834 49.4232 47.4834 49.416C47.4906 49.4017 47.5013 49.4017 47.5156 49.416C47.5228 49.416 47.5299 49.416 47.5371 49.416C47.5514 49.4089 47.5658 49.4053 47.5801 49.4053C47.5801 49.3695 47.5801 49.3444 47.5801 49.3301C47.5801 49.3086 47.5801 49.2907 47.5801 49.2764C47.5872 49.2549 47.5908 49.2334 47.5908 49.2119C47.598 49.1904 47.6016 49.1582 47.6016 49.1152C47.6589 49.1224 47.734 49.1296 47.8271 49.1367C47.9274 49.1439 48.0062 49.151 48.0635 49.1582C48.0778 49.1582 48.1029 49.151 48.1387 49.1367C48.1745 49.1152 48.1995 49.0973 48.2139 49.083C48.221 49.0758 48.2174 49.0651 48.2031 49.0508C48.196 49.0293 48.1924 49.015 48.1924 49.0078L47.9453 48.9863C47.9453 48.9792 47.9489 48.9684 47.9561 48.9541C47.9704 48.9326 47.9775 48.9183 47.9775 48.9111C48.0062 48.8825 48.0492 48.8538 48.1064 48.8252C48.1637 48.7894 48.1995 48.7715 48.2139 48.7715C48.2282 48.7715 48.2568 48.7965 48.2998 48.8467C48.3428 48.8968 48.3678 48.929 48.375 48.9434C48.3822 48.9434 48.3893 48.9398 48.3965 48.9326C48.4036 48.9255 48.4108 48.9219 48.418 48.9219V48.6963C48.4251 48.6963 48.4323 48.6999 48.4395 48.707C48.4466 48.7142 48.4538 48.7178 48.4609 48.7178C48.4681 48.7178 48.4932 48.7321 48.5361 48.7607C48.5791 48.7894 48.6042 48.8037 48.6113 48.8037C48.6185 48.8037 48.6292 48.7965 48.6436 48.7822C48.665 48.7607 48.6829 48.7464 48.6973 48.7393C48.7689 48.6318 48.8441 48.5566 48.9229 48.5137C49.0088 48.4707 49.0983 48.4456 49.1914 48.4385C49.2845 48.4242 49.3812 48.4206 49.4814 48.4277C49.5817 48.4349 49.6891 48.4349 49.8037 48.4277C49.8109 48.4277 49.8359 48.417 49.8789 48.3955C49.9219 48.3669 49.9469 48.3525 49.9541 48.3525C50.04 48.3597 50.1117 48.3812 50.1689 48.417C50.2262 48.4456 50.2764 48.4779 50.3193 48.5137C50.3695 48.5495 50.4124 48.5817 50.4482 48.6104C50.4912 48.639 50.5413 48.6569 50.5986 48.6641H50.6846L50.5986 48.5781C50.613 48.5781 50.638 48.5853 50.6738 48.5996C50.7096 48.6068 50.749 48.6175 50.792 48.6318C50.835 48.6462 50.8743 48.6605 50.9102 48.6748C50.946 48.6891 50.971 48.6963 50.9854 48.6963C50.9925 48.6963 51.0068 48.6963 51.0283 48.6963C51.0498 48.6891 51.0677 48.6855 51.082 48.6855C51.082 48.6927 51.0928 48.6963 51.1143 48.6963C51.1214 48.6963 51.1322 48.6999 51.1465 48.707L51.3828 49.1152C51.4329 49.0723 51.4723 49.0723 51.501 49.1152C51.5296 49.151 51.5583 49.2012 51.5869 49.2656C51.6227 49.3301 51.6621 49.3981 51.7051 49.4697C51.748 49.5342 51.8053 49.57 51.877 49.5771C51.877 49.613 51.877 49.6595 51.877 49.7168C51.877 49.7669 51.8698 49.8171 51.8555 49.8672C51.8483 49.9102 51.834 49.946 51.8125 49.9746C51.791 49.9961 51.7588 49.9997 51.7158 49.9854C51.7516 50.0283 51.7839 50.1107 51.8125 50.2324C51.8483 50.347 51.8662 50.4258 51.8662 50.4688V50.501C51.8447 50.5368 51.8268 50.5941 51.8125 50.6729C51.7982 50.7516 51.7803 50.8376 51.7588 50.9307C51.7445 51.0166 51.7266 51.099 51.7051 51.1777C51.6908 51.2565 51.6729 51.3102 51.6514 51.3389C51.637 51.3532 51.6084 51.3783 51.5654 51.4141C51.5225 51.4499 51.4974 51.4714 51.4902 51.4785C51.4831 51.4928 51.4688 51.5179 51.4473 51.5537C51.4258 51.5895 51.4007 51.6289 51.3721 51.6719C51.3506 51.7148 51.3255 51.7578 51.2969 51.8008C51.2754 51.8366 51.2611 51.8581 51.2539 51.8652C51.2181 51.9082 51.1751 51.9476 51.125 51.9834C51.082 52.012 51.0426 52.0443 51.0068 52.0801C50.971 52.1159 50.9388 52.1553 50.9102 52.1982C50.8815 52.2412 50.8672 52.2985 50.8672 52.3701C50.8529 52.3558 50.8242 52.3379 50.7812 52.3164C50.7454 52.2949 50.7204 52.2842 50.7061 52.2842L50.6309 52.3594C50.6237 52.3665 50.6094 52.3916 50.5879 52.4346C50.5736 52.4775 50.5628 52.5026 50.5557 52.5098C50.5485 52.5169 50.5342 52.5169 50.5127 52.5098C50.4912 52.4954 50.4769 52.4919 50.4697 52.499C50.4554 52.5133 50.4303 52.5527 50.3945 52.6172C50.3587 52.6816 50.3337 52.7174 50.3193 52.7246C50.305 52.7389 50.2799 52.7497 50.2441 52.7568C50.2155 52.764 50.194 52.7676 50.1797 52.7676C50.1797 52.7819 50.1367 52.7962 50.0508 52.8105C49.9648 52.8249 49.8717 52.8428 49.7715 52.8643C49.6784 52.8786 49.5996 52.8965 49.5352 52.918C49.4707 52.9395 49.4635 52.9609 49.5137 52.9824C49.528 52.9896 49.5566 53.0218 49.5996 53.0791C49.6497 53.1292 49.6999 53.1901 49.75 53.2617C49.8073 53.3262 49.8574 53.3906 49.9004 53.4551C49.9505 53.5124 49.9827 53.5446 49.9971 53.5518C50.1117 53.652 50.194 53.7451 50.2441 53.8311C50.3014 53.9098 50.348 53.9886 50.3838 54.0674C50.4268 54.139 50.4769 54.2142 50.5342 54.293C50.5915 54.3717 50.6846 54.4541 50.8135 54.54C50.8206 54.5472 50.8636 54.5902 50.9424 54.6689C51.0283 54.7477 51.1178 54.8337 51.2109 54.9268C51.304 55.0199 51.39 55.1058 51.4688 55.1846C51.5475 55.2633 51.5905 55.3063 51.5977 55.3135C51.612 55.3206 51.637 55.36 51.6729 55.4316C51.7087 55.5033 51.7445 55.582 51.7803 55.668C51.8232 55.7467 51.8626 55.8219 51.8984 55.8936C51.9342 55.958 51.9593 55.9938 51.9736 56.001C51.988 56.0153 52.0202 56.0404 52.0703 56.0762C52.1276 56.1048 52.1849 56.1406 52.2422 56.1836C52.2995 56.2266 52.3496 56.2695 52.3926 56.3125C52.4355 56.3555 52.4535 56.3984 52.4463 56.4414C52.4391 56.4557 52.4141 56.4915 52.3711 56.5488C52.3353 56.6061 52.3066 56.6455 52.2852 56.667C52.2279 56.7171 52.1706 56.778 52.1133 56.8496C52.056 56.9141 52.0166 56.9499 51.9951 56.957C51.9808 56.9642 51.9342 56.9678 51.8555 56.9678C51.7767 56.9606 51.7158 56.957 51.6729 56.957C51.6514 56.957 51.6299 56.9391 51.6084 56.9033C51.5869 56.8604 51.5654 56.8174 51.5439 56.7744C51.5296 56.7314 51.5153 56.6921 51.501 56.6562C51.4938 56.6133 51.4867 56.5918 51.4795 56.5918C51.458 56.5846 51.4258 56.5632 51.3828 56.5273C51.347 56.4844 51.3076 56.4414 51.2646 56.3984C51.2217 56.3483 51.1823 56.3018 51.1465 56.2588C51.1107 56.2158 51.0892 56.1836 51.082 56.1621C51.0534 56.1764 51.0247 56.1764 50.9961 56.1621C50.9746 56.1406 50.9531 56.1156 50.9316 56.0869L50.8457 55.9795H50.7705C50.749 55.9723 50.7204 55.9508 50.6846 55.915C50.6559 55.8721 50.6201 55.8291 50.5771 55.7861C50.5413 55.7432 50.5091 55.7038 50.4805 55.668C50.4518 55.6322 50.4339 55.6107 50.4268 55.6035C50.4196 55.5964 50.4017 55.5713 50.373 55.5283C50.3444 55.4782 50.3122 55.4281 50.2764 55.3779C50.2406 55.3206 50.2048 55.2705 50.1689 55.2275C50.1331 55.1846 50.1117 55.1595 50.1045 55.1523C50.0973 55.1452 50.0579 55.113 49.9863 55.0557C49.9219 54.9912 49.8825 54.959 49.8682 54.959C49.8109 54.9447 49.7536 54.9017 49.6963 54.8301C49.6462 54.7585 49.5996 54.6797 49.5566 54.5938C49.5137 54.5078 49.4707 54.4219 49.4277 54.3359C49.3848 54.25 49.3454 54.1784 49.3096 54.1211C49.2738 54.1068 49.2236 54.0674 49.1592 54.0029C49.0947 53.9385 49.0303 53.8704 48.9658 53.7988C48.9014 53.7201 48.8369 53.6484 48.7725 53.584C48.708 53.5195 48.6579 53.4766 48.6221 53.4551C48.6006 53.4336 48.5576 53.3906 48.4932 53.3262C48.4359 53.2617 48.4001 53.2188 48.3857 53.1973L47.9453 52.9717C47.931 52.9717 47.9023 52.9896 47.8594 53.0254C47.8164 53.0612 47.7949 53.0898 47.7949 53.1113C47.7878 53.1257 47.7985 53.1686 47.8271 53.2402C47.863 53.3047 47.8809 53.3405 47.8809 53.3477V53.7881C47.8665 53.8239 47.8522 53.8848 47.8379 53.9707C47.8307 54.0566 47.8236 54.1533 47.8164 54.2607C47.8164 54.3682 47.8128 54.4863 47.8057 54.6152C47.8057 54.737 47.8057 54.8551 47.8057 54.9697V55.2812C47.8486 55.2884 47.8737 55.3206 47.8809 55.3779C47.888 55.4281 47.888 55.4889 47.8809 55.5605C47.8737 55.625 47.863 55.693 47.8486 55.7646C47.8415 55.8291 47.8379 55.8792 47.8379 55.915V56.0225C47.8379 56.1299 47.8415 56.2445 47.8486 56.3662C47.863 56.488 47.8558 56.599 47.8271 56.6992C47.8057 56.7995 47.7591 56.8818 47.6875 56.9463C47.6159 57.0036 47.5013 57.0251 47.3438 57.0107C47.2363 57.0036 47.1504 56.9857 47.0859 56.957C47.0215 56.9284 46.9714 56.889 46.9355 56.8389C46.9069 56.7887 46.8854 56.7314 46.8711 56.667C46.8639 56.5954 46.8532 56.513 46.8389 56.4199C46.8389 56.3984 46.8389 56.3161 46.8389 56.1729C46.846 56.0296 46.8496 55.8757 46.8496 55.7109C46.8568 55.5391 46.8639 55.3815 46.8711 55.2383C46.8783 55.0951 46.8818 55.0127 46.8818 54.9912C46.8818 54.9912 46.8783 54.9518 46.8711 54.873C46.8711 54.7943 46.8711 54.7083 46.8711 54.6152C46.8711 54.515 46.8675 54.4255 46.8604 54.3467C46.8604 54.2607 46.8604 54.2106 46.8604 54.1963C46.8604 54.1032 46.8639 54.0387 46.8711 54.0029C46.8854 53.9671 46.8962 53.9456 46.9033 53.9385C46.9176 53.9313 46.9284 53.9277 46.9355 53.9277C46.9499 53.9206 46.957 53.8955 46.957 53.8525C46.957 53.8096 46.9427 53.7773 46.9141 53.7559C46.8854 53.7344 46.8711 53.6986 46.8711 53.6484C46.8711 53.541 46.8818 53.4372 46.9033 53.3369C46.9248 53.2295 46.9355 53.1185 46.9355 53.0039V52.9395C46.9284 52.9108 46.9033 52.8571 46.8604 52.7783C46.8174 52.6924 46.7887 52.6351 46.7744 52.6064L46.7422 50.2432L46.8711 50.1787C46.8353 50.0856 46.778 50.0391 46.6992 50.0391C46.6992 49.8242 46.7601 49.6631 46.8818 49.5557L46.7529 49.3516C46.7171 49.3444 46.6777 49.3301 46.6348 49.3086C46.599 49.2871 46.5811 49.2728 46.5811 49.2656C46.5811 49.2513 46.5846 49.2262 46.5918 49.1904C46.599 49.1546 46.6097 49.1188 46.624 49.083C46.6455 49.0472 46.667 49.0186 46.6885 48.9971C46.7171 48.9684 46.7458 48.9541 46.7744 48.9541C46.7744 48.9541 46.7816 48.9577 46.7959 48.9648C46.8031 48.972 46.8102 48.9756 46.8174 48.9756C46.8317 48.9541 46.8496 48.929 46.8711 48.9004C46.8854 48.8789 46.8997 48.8574 46.9141 48.8359C46.9355 48.8145 46.957 48.7894 46.9785 48.7607L46.7529 48.7393L46.6777 48.6533ZM47.6768 51.8975C47.6839 51.9118 47.709 51.9404 47.752 51.9834C47.7949 52.0264 47.8236 52.055 47.8379 52.0693C47.8522 52.0765 47.8916 52.0801 47.9561 52.0801C48.0205 52.0801 48.0599 52.0837 48.0742 52.0908C48.0814 52.0908 48.0957 52.1051 48.1172 52.1338C48.1387 52.1553 48.153 52.1696 48.1602 52.1768C48.1745 52.1839 48.1888 52.1875 48.2031 52.1875H48.2783C48.4001 52.2018 48.5146 52.2269 48.6221 52.2627C48.7295 52.2913 48.8369 52.2949 48.9443 52.2734C48.9658 52.2663 49.0267 52.252 49.127 52.2305C49.2272 52.2018 49.2881 52.1839 49.3096 52.1768C49.3167 52.1696 49.3382 52.1624 49.374 52.1553C49.417 52.141 49.46 52.1266 49.5029 52.1123C49.5459 52.098 49.5853 52.0872 49.6211 52.0801C49.6569 52.0658 49.682 52.0586 49.6963 52.0586C49.818 52.0228 49.9147 51.9727 49.9863 51.9082C50.0579 51.8438 50.1475 51.7507 50.2549 51.6289C50.262 51.6146 50.2979 51.568 50.3623 51.4893C50.4268 51.4105 50.4626 51.3639 50.4697 51.3496C50.5127 51.2852 50.5592 51.2028 50.6094 51.1025C50.6595 50.9951 50.7096 50.8841 50.7598 50.7695C50.8099 50.6478 50.8493 50.5296 50.8779 50.415C50.9066 50.3005 50.9209 50.2002 50.9209 50.1143C50.9209 50.0283 50.9102 49.9424 50.8887 49.8564C50.8672 49.7633 50.8385 49.681 50.8027 49.6094C50.7669 49.5306 50.7204 49.4661 50.6631 49.416C50.6058 49.3587 50.5413 49.3265 50.4697 49.3193C50.4268 49.3193 50.3516 49.3122 50.2441 49.2979C50.1439 49.2835 50.0365 49.2728 49.9219 49.2656C49.8145 49.2585 49.7178 49.262 49.6318 49.2764C49.5459 49.2835 49.4958 49.3086 49.4814 49.3516C49.4671 49.3014 49.4456 49.2728 49.417 49.2656C49.3883 49.2585 49.3561 49.2513 49.3203 49.2441C49.3132 49.2441 49.2988 49.2477 49.2773 49.2549C49.263 49.2549 49.2523 49.2549 49.2451 49.2549L49.3203 49.3301C49.3203 49.3444 49.3096 49.3623 49.2881 49.3838C49.2738 49.3981 49.2594 49.4053 49.2451 49.4053C49.2308 49.4124 49.1986 49.4196 49.1484 49.4268C49.1055 49.4268 49.0553 49.4268 48.998 49.4268C48.9479 49.4268 48.8978 49.4303 48.8477 49.4375C48.8047 49.4375 48.7796 49.4411 48.7725 49.4482C48.7653 49.4482 48.7546 49.4626 48.7402 49.4912C48.7259 49.5199 48.708 49.5521 48.6865 49.5879C48.6722 49.6237 48.6579 49.6595 48.6436 49.6953C48.6364 49.724 48.6292 49.7419 48.6221 49.749C48.5863 49.7992 48.5361 49.8314 48.4717 49.8457C48.4144 49.86 48.3607 49.8708 48.3105 49.8779C48.2962 49.8779 48.2568 49.8743 48.1924 49.8672C48.1279 49.86 48.0885 49.86 48.0742 49.8672C48.0599 49.8672 48.0456 49.8887 48.0312 49.9316C48.0169 49.9746 48.0026 50.0033 47.9883 50.0176C47.9811 50.0104 47.9704 50.0068 47.9561 50.0068H47.9131C47.9059 50.014 47.8809 50.0462 47.8379 50.1035C47.8021 50.1536 47.7734 50.1966 47.752 50.2324C47.7376 50.2611 47.7197 50.3005 47.6982 50.3506C47.6839 50.4007 47.6696 50.458 47.6553 50.5225C47.641 50.5798 47.6266 50.637 47.6123 50.6943C47.6051 50.7445 47.6016 50.7839 47.6016 50.8125C47.6016 50.8555 47.6016 50.9199 47.6016 51.0059C47.6016 51.0918 47.6051 51.1742 47.6123 51.2529C47.6195 51.3317 47.6302 51.4033 47.6445 51.4678C47.666 51.5322 47.6947 51.5645 47.7305 51.5645C47.7305 51.6074 47.734 51.6432 47.7412 51.6719C47.7555 51.7005 47.7663 51.7292 47.7734 51.7578C47.7806 51.7865 47.777 51.8115 47.7627 51.833C47.7484 51.8545 47.7197 51.876 47.6768 51.8975ZM49.5996 52.4238C49.5853 52.4382 49.5566 52.474 49.5137 52.5312C49.4779 52.5885 49.4564 52.6279 49.4492 52.6494C49.4421 52.6566 49.4385 52.6637 49.4385 52.6709V52.6924V52.7139C49.4385 52.721 49.4421 52.7246 49.4492 52.7246C49.4635 52.7318 49.4886 52.7282 49.5244 52.7139C49.5674 52.6924 49.5924 52.6745 49.5996 52.6602C49.6068 52.653 49.6104 52.6387 49.6104 52.6172C49.6175 52.5885 49.6211 52.5671 49.6211 52.5527C49.6211 52.5456 49.6175 52.5277 49.6104 52.499C49.6104 52.4632 49.6068 52.4382 49.5996 52.4238ZM49.3848 52.252C49.349 52.252 49.3311 52.2806 49.3311 52.3379C49.3382 52.388 49.3597 52.4131 49.3955 52.4131C49.4385 52.4202 49.4564 52.3988 49.4492 52.3486C49.4492 52.2913 49.4277 52.2591 49.3848 52.252ZM47 51.5215C46.9642 51.5143 46.9463 51.5394 46.9463 51.5967C46.9535 51.6468 46.9749 51.6755 47.0107 51.6826C47.0537 51.6898 47.0716 51.6683 47.0645 51.6182C47.0645 51.5609 47.043 51.5286 47 51.5215ZM50.2334 52.4775C50.1976 52.4775 50.1761 52.4954 50.1689 52.5312C50.1689 52.5671 50.1868 52.585 50.2227 52.585C50.2656 52.5921 50.2871 52.5778 50.2871 52.542C50.2943 52.5062 50.2764 52.4847 50.2334 52.4775ZM46.9033 49.6846C46.8675 49.6846 46.8496 49.7132 46.8496 49.7705C46.8496 49.8206 46.8675 49.8457 46.9033 49.8457C46.9463 49.8529 46.9678 49.8314 46.9678 49.7812C46.9678 49.724 46.9463 49.6917 46.9033 49.6846ZM48.6758 52.4775C48.64 52.4704 48.6221 52.4954 48.6221 52.5527C48.6221 52.6029 48.64 52.6315 48.6758 52.6387C48.7188 52.6458 48.7402 52.6243 48.7402 52.5742C48.7402 52.5169 48.7188 52.4847 48.6758 52.4775ZM48.6113 49.2764C48.5755 49.2692 48.5576 49.2943 48.5576 49.3516C48.5576 49.4017 48.5755 49.4303 48.6113 49.4375C48.6543 49.4447 48.6758 49.4232 48.6758 49.373C48.6758 49.3158 48.6543 49.2835 48.6113 49.2764ZM48.6221 53.1328C48.5863 53.1257 48.5684 53.1507 48.5684 53.208C48.5684 53.2581 48.5863 53.2868 48.6221 53.2939C48.665 53.2939 48.6865 53.2689 48.6865 53.2188C48.6865 53.1615 48.665 53.1328 48.6221 53.1328ZM48.2998 49.1689C48.2568 49.1689 48.2354 49.194 48.2354 49.2441C48.2354 49.2943 48.2568 49.3193 48.2998 49.3193C48.3356 49.3265 48.3535 49.305 48.3535 49.2549C48.3535 49.2048 48.3356 49.1761 48.2998 49.1689ZM47.5908 51.7363C47.555 51.7363 47.5371 51.7614 47.5371 51.8115C47.5371 51.8617 47.555 51.8867 47.5908 51.8867C47.6338 51.8939 47.6553 51.8724 47.6553 51.8223C47.6553 51.7721 47.6338 51.7435 47.5908 51.7363ZM49.9971 52.6172C49.9613 52.6172 49.9434 52.6423 49.9434 52.6924C49.9434 52.7425 49.9613 52.7676 49.9971 52.7676C50.04 52.7747 50.0615 52.7533 50.0615 52.7031C50.0615 52.653 50.04 52.6243 49.9971 52.6172ZM48.708 52.3057C48.6722 52.2985 48.6543 52.32 48.6543 52.3701C48.6543 52.4202 48.6722 52.4489 48.708 52.4561C48.751 52.4632 48.7725 52.4417 48.7725 52.3916C48.7725 52.3415 48.751 52.3128 48.708 52.3057ZM47.4727 52.8857C47.4368 52.8786 47.4189 52.9036 47.4189 52.9609C47.4189 53.0111 47.4368 53.0397 47.4727 53.0469C47.5085 53.0469 47.5264 53.0218 47.5264 52.9717C47.5264 52.9144 47.5085 52.8857 47.4727 52.8857ZM48.1387 49.3945C48.1029 49.3945 48.085 49.4196 48.085 49.4697C48.0921 49.5199 48.1136 49.5449 48.1494 49.5449C48.1852 49.5521 48.1995 49.5306 48.1924 49.4805C48.1924 49.4303 48.1745 49.4017 48.1387 49.3945ZM47.8701 52.6387C47.863 52.6458 47.8486 52.6602 47.8271 52.6816C47.8057 52.696 47.7949 52.7103 47.7949 52.7246L47.7842 52.7568C47.7842 52.764 47.7842 52.7712 47.7842 52.7783C47.7913 52.7855 47.7949 52.7926 47.7949 52.7998L47.8701 52.7246V52.7031C47.8701 52.696 47.8701 52.6924 47.8701 52.6924C47.8773 52.6924 47.8809 52.6888 47.8809 52.6816C47.8809 52.6745 47.8773 52.6673 47.8701 52.6602C47.8701 52.653 47.8701 52.6458 47.8701 52.6387ZM51.6514 51.1885C51.6585 51.1598 51.6442 51.1455 51.6084 51.1455C51.5726 51.1383 51.5583 51.1491 51.5654 51.1777C51.5798 51.1992 51.5941 51.2135 51.6084 51.2207C51.6227 51.2207 51.637 51.21 51.6514 51.1885ZM49.9971 52.1123C50.0042 52.0837 49.9899 52.0693 49.9541 52.0693C49.9183 52.0622 49.9076 52.0729 49.9219 52.1016C49.929 52.123 49.9398 52.1374 49.9541 52.1445C49.9684 52.1445 49.9827 52.1338 49.9971 52.1123ZM47.6016 49.9854C47.5729 49.971 47.5586 49.9818 47.5586 50.0176C47.5586 50.0462 47.5729 50.0605 47.6016 50.0605C47.623 50.0462 47.6338 50.0319 47.6338 50.0176C47.6338 50.0033 47.623 49.9925 47.6016 49.9854ZM47.6768 49.749C47.6553 49.7347 47.6445 49.7454 47.6445 49.7812C47.6445 49.8171 47.6553 49.8314 47.6768 49.8242C47.6982 49.8171 47.709 49.8063 47.709 49.792C47.709 49.7777 47.6982 49.7633 47.6768 49.749ZM49.4062 49.1045L49.4814 49.1152L49.4062 49.0293V49.1045ZM51.9521 56.334C51.9163 56.3268 51.8984 56.3519 51.8984 56.4092C51.9056 56.4593 51.9271 56.488 51.9629 56.4951C52.0059 56.5023 52.0238 56.4808 52.0166 56.4307C52.0166 56.3734 51.9951 56.3411 51.9521 56.334ZM46.9141 55.5498C46.8783 55.5426 46.8604 55.5677 46.8604 55.625C46.8675 55.6751 46.889 55.7038 46.9248 55.7109C46.9678 55.7181 46.9857 55.6966 46.9785 55.6465C46.9785 55.5892 46.957 55.557 46.9141 55.5498Z" fill="#4B4B4B"/>
</svg>
