<svg width="31" height="34" viewBox="0 0 31 34" fill="none" xmlns="http://www.w3.org/2000/svg">
<path d="M29.0498 6.24667L28.9652 5.51412H24.3491V2.16357H6.65088V5.51412H2.03188L1.95015 6.27757C1.64861 8.96357 2.31088 14.351 6.79742 16.0727C7.51324 20.2887 10.8866 23.8587 14.7109 24.2976V30.1178H9.58179V31.8363H21.4182V30.1178H16.2891V24.2759C20.1162 23.837 23.4867 20.2578 24.18 16.0572C28.6862 14.3325 29.3542 8.94194 29.0498 6.24667ZM3.47479 7.24503H6.62833V14.1656C3.73688 12.5274 3.44661 8.82448 3.47479 7.24503ZM22.7709 14.453C22.7709 18.6536 19.2369 22.6254 15.5 22.6254C11.7631 22.6254 8.22624 18.6536 8.22624 14.453V3.8543H22.7709V14.453ZM24.3491 14.1439V7.24503H27.5026C27.5449 8.82448 27.2631 12.5274 24.3491 14.1192V14.1439Z" fill="#4B4B4B"/>
<path d="M13.0536 15.977L15.4998 14.5707L17.9432 15.977L17.4754 12.9943L19.4537 10.8801L16.7229 10.4474L15.4998 7.73047L14.2795 10.4474L11.5459 10.8801L13.5214 12.9943L13.0536 15.977Z" fill="#4B4B4B"/>
</svg>
