<svg width="12" height="12" viewBox="0 0 12 12" fill="none" xmlns="http://www.w3.org/2000/svg">
<path d="M9.346 8.81563C10.0734 7.96325 10.486 6.882 10.486 5.74312C10.4861 3.12337 8.36275 1 5.74312 1C3.1235 1 1 3.1235 1 5.743C1 8.36263 3.1235 10.4863 5.743 10.4863C6.21238 10.4866 6.67922 10.4173 7.12825 10.2806C7.22282 10.2511 7.30188 10.1855 7.34818 10.0979C7.39447 10.0103 7.40424 9.90798 7.37535 9.81324C7.34646 9.71849 7.28125 9.63902 7.19397 9.59219C7.10669 9.54535 7.00442 9.53495 6.9095 9.56325C6.53137 9.67834 6.13825 9.73664 5.743 9.73625C3.53775 9.73613 1.75 7.94838 1.75 5.743C1.75 3.53775 3.53775 1.75 5.743 1.75C7.94838 1.75 9.73625 3.53775 9.73625 5.743C9.73625 6.78925 9.32163 7.7785 8.59788 8.52413C8.51856 8.60582 8.47457 8.71544 8.47542 8.8293C8.47626 8.94316 8.52186 9.05211 8.60238 9.13263L10.3599 10.8901C10.4304 10.9595 10.5255 10.9982 10.6244 10.9978C10.7233 10.9974 10.8181 10.958 10.888 10.888C10.958 10.8181 10.9975 10.7233 10.9979 10.6244C10.9983 10.5255 10.9596 10.4304 10.8903 10.3599L9.346 8.81563Z" fill="#BCB8B8"/>
</svg>
