<svg width="52" height="51" viewBox="0 0 52 51" fill="none" xmlns="http://www.w3.org/2000/svg">
<path d="M50.8083 23.3555C50.6728 19.8989 50.4017 16.51 50.0628 13.0533C49.7917 10.2744 49.7917 7.02108 48.5717 4.51331C47.1483 1.53108 44.0305 0.649972 40.6417 0.514416C39.6928 0.311083 38.7439 0.243305 37.7272 0.10775C31.3561 -0.434473 25.3239 1.25997 19.0205 0.988861C16.2417 0.853305 13.5306 0.514416 10.6161 0.717749C8.51499 0.853305 5.32944 0.649972 3.49944 1.86997C0.178329 4.03886 -0.16056 10.0033 0.178329 13.6633C-0.228338 18.6789 0.178329 23.8977 0.246106 26.88C0.246106 30.4044 0.246107 33.9289 0.44944 37.4533C0.584996 39.8933 0.44944 43.1466 1.66944 45.3833C4.17722 49.9244 12.3106 50.3311 16.8517 50.3989C24.1039 50.6022 31.3561 49.9244 38.6083 49.5855C43.5561 49.3822 48.5039 48.7722 50.1983 43.35C51.0117 40.7066 50.9439 37.7244 50.9439 34.9455C51.0794 31.0822 51.0117 27.2189 50.8083 23.3555ZM13.6661 42.13C13.5983 42.2655 13.5306 42.3333 13.4628 42.4689C13.2594 42.5366 12.9883 42.6722 12.785 42.74C13.0561 42.5366 13.395 42.3333 13.6661 42.13ZM22.1383 10.0033C22.1383 10.0711 22.2061 10.1389 22.2061 10.2066C21.7994 10.4777 21.325 10.8166 20.9183 11.0878L20.8505 11.02C21.325 10.6811 21.7317 10.3422 22.1383 10.0033ZM29.4583 8.91886C29.9328 8.37664 30.475 7.76664 31.0172 7.22442C31.1528 7.22442 31.2883 7.29219 31.4239 7.29219C31.2883 7.42775 31.085 7.63108 30.9494 7.76664C30.475 8.1733 29.9328 8.51219 29.4583 8.91886ZM35.8294 4.71664C35.8294 4.71664 35.7617 4.71664 35.7617 4.78442C35.7617 4.71664 35.7617 4.71664 35.7617 4.64886C35.8294 4.64886 35.8972 4.58108 35.965 4.58108C35.8972 4.64886 35.8972 4.71664 35.8294 4.71664ZM34.8805 41.52C34.8805 41.5877 34.8128 41.6555 34.8128 41.7233C34.745 41.7233 34.745 41.6555 34.6772 41.6555C34.745 41.5877 34.8128 41.5877 34.8805 41.52ZM9.87055 21.1189C10.0061 21.1189 10.1417 21.1189 10.2094 21.1189C10.2772 21.1189 10.345 21.1189 10.4128 21.1189C10.5483 21.1866 10.6839 21.2544 10.7517 21.2544C10.8194 21.2544 10.8872 21.3222 10.955 21.3222C11.3617 21.5255 11.8361 21.6611 12.2428 21.8644C11.2939 20.78 10.4128 19.7633 10.1417 18.1366C9.87055 16.51 10.1417 14.9511 10.8872 13.5277C10.955 13.3922 11.0228 13.3922 11.0906 13.3244C11.2261 13.1889 11.4972 13.1889 11.6328 13.3244C13.6661 15.0866 16.1739 16.9844 18.8172 18.2722C18.9528 18.34 19.1561 18.4077 19.2917 18.4755C20.4439 19.0177 21.6639 19.4244 22.8161 19.6277C25.595 20.17 24.6461 19.2889 24.985 17.2555C25.1883 16.1711 25.7305 15.1544 26.4083 14.3411C27.6961 12.85 29.5939 11.9011 31.5594 11.6978C35.0161 11.4266 37.7272 14.2733 40.9128 12.0366C41.2517 11.8333 41.7261 12.24 41.455 12.5789C40.7094 13.5955 39.8961 14.5444 39.015 15.3577C39.8961 15.1544 40.7772 14.8833 41.5905 14.4766C41.9294 14.3411 42.3361 14.68 42.1328 15.0189C41.2517 16.4422 40.3028 17.5944 39.015 18.6789C39.015 18.6789 38.9472 18.6789 38.9472 18.7466C39.4894 24.5077 36.9817 28.5066 33.2539 32.7089C30.8139 35.4877 26.9506 39.08 22.9517 39.08C22.2739 39.2155 21.5283 39.2833 20.8505 39.2833C20.5117 39.2833 20.2405 39.3511 19.9017 39.3511C16.2417 39.3511 11.9039 38.1989 8.98944 36.03C8.65055 35.7589 8.85388 35.2166 9.32833 35.2844C12.785 36.0977 16.1061 35.3522 18.7494 33.0477C16.0383 32.5733 13.9372 30.0655 11.9717 28.3711C11.6328 28.1 11.9717 27.6255 12.3783 27.6933C13.0561 27.8289 13.6661 27.8966 14.2761 27.8966C12.6494 27.2189 11.2939 26.1344 10.6161 24.5755C10.0061 23.6266 9.73499 22.61 9.59944 21.4578C9.59944 21.3222 9.73499 21.1189 9.87055 21.1189ZM27.6961 43.5533C27.7639 43.7566 27.8317 43.8922 27.8994 44.0278C27.6283 44.0278 27.2894 44.0277 27.0183 44.0955C27.2217 43.8922 27.425 43.6889 27.6961 43.5533ZM31.695 43.6889C31.8305 43.7566 31.8983 43.8922 32.0339 43.96C31.7628 43.96 31.4917 43.96 31.2205 43.96C31.3561 43.8244 31.5594 43.7566 31.695 43.6889ZM42.8105 42.8077L42.8783 42.8755C42.7428 42.9433 42.6072 43.0111 42.4039 43.0789C42.5394 42.9433 42.675 42.8755 42.8105 42.8077ZM3.56722 30.1333C3.83833 30.0655 4.04166 29.93 4.245 29.7266C5.12611 28.8455 6.00722 27.9644 6.88833 27.0833C6.95611 27.2189 7.02388 27.2866 7.15944 27.3544C5.87166 28.6422 4.65166 29.93 3.56722 31.2855C3.56722 30.8789 3.56722 30.54 3.56722 30.1333ZM5.87166 44.1633C5.87166 44.2989 5.87166 44.4344 5.93944 44.57C5.80388 44.4344 5.66833 44.2989 5.53277 44.1633C5.60055 44.2311 5.73611 44.2311 5.87166 44.1633Z" fill="black"/>
<path d="M39.7607 16.9845C39.7607 16.9845 39.8285 16.9167 39.8963 16.9167C39.8963 16.9167 39.8285 16.9845 39.7607 16.9845Z" fill="black"/>
<path d="M15.4282 30.4722C15.3604 30.4044 15.3604 30.3366 15.3604 30.2689C15.2248 30.2011 15.157 30.1333 15.0215 30.1333C15.157 30.2689 15.3604 30.4044 15.4959 30.54L15.4282 30.4722Z" fill="black"/>
<path d="M16.5806 28.439C16.6472 28.5056 16.6472 28.5056 16.5806 28.439V28.439Z" fill="black"/>
<path d="M37.3882 16.1034C37.3882 16.1712 37.456 16.1712 37.3882 16.1034C37.456 16.1712 37.456 16.1712 37.456 16.1712H37.5237C37.5237 16.1034 37.456 16.1034 37.456 16.0356C37.456 16.1034 37.3882 16.1034 37.3882 16.1034Z" fill="black"/>
<path d="M39.625 17.2556C39.5572 17.2556 39.5572 17.3234 39.4894 17.3234C39.2861 17.5267 39.0827 17.7301 38.8794 17.9334C39.1505 17.7301 39.3538 17.4589 39.625 17.2556Z" fill="black"/>
<path d="M10.6841 24.6433C11.3619 26.2022 12.7174 27.2866 14.3441 27.9644C13.7341 27.9644 13.1241 27.8966 12.4463 27.761C12.1074 27.6933 11.7008 28.1677 12.0397 28.4388C14.0052 30.1333 16.1063 32.641 18.8174 33.1155C16.1741 35.4199 12.9208 36.1655 9.39633 35.3522C8.92189 35.2166 8.71855 35.8266 9.05744 36.0977C12.0397 38.1988 16.3774 39.4188 19.9697 39.4188C20.3086 39.4188 20.6474 39.4188 20.9186 39.351C21.6641 39.351 22.3419 39.2833 23.0197 39.1477C27.0186 39.1477 30.9497 35.5555 33.3219 32.7766C36.9819 28.5744 39.4897 24.5755 39.0152 18.8144C39.0152 18.8144 39.083 18.8144 39.083 18.7466C40.303 17.6622 41.3197 16.5099 42.2008 15.0866C42.4041 14.7477 41.9974 14.4088 41.6586 14.5444C40.8452 14.951 39.9641 15.2222 39.083 15.4255C39.9641 14.6122 40.7774 13.6633 41.523 12.6466C41.7263 12.3077 41.3197 11.901 40.9808 12.1044C37.7952 14.341 35.0841 11.4944 31.6274 11.7655C29.6619 11.901 27.7641 12.8499 26.4763 14.4088C25.7986 15.2222 25.2563 16.2388 25.053 17.3233C24.6463 19.3566 25.663 20.2377 22.8841 19.6955C21.7319 19.4922 20.5119 19.0855 19.3597 18.5433C19.2241 18.4755 19.0208 18.4077 18.8852 18.3399C16.2419 17.0522 13.6663 15.1544 11.7008 13.3922C11.5652 13.2566 11.2941 13.2566 11.1586 13.3922C11.0908 13.3922 10.9552 13.4599 10.9552 13.5955C10.2097 15.0188 9.87078 16.5777 10.2097 18.2044C10.4808 19.831 11.3619 20.7799 12.3108 21.9322C11.9041 21.7288 11.4297 21.5933 11.023 21.3899C10.9552 21.3222 10.8874 21.3222 10.8197 21.3222C10.6841 21.2544 10.5486 21.1866 10.4808 21.1866C10.413 21.1866 10.3452 21.1866 10.2774 21.1866C10.1419 21.1866 10.0741 21.1866 9.93855 21.1866C9.803 21.1866 9.59967 21.3899 9.66744 21.5933C9.73522 22.6777 10.0741 23.6944 10.6841 24.6433ZM16.5808 28.4388C16.6486 28.5066 16.6486 28.5066 16.5808 28.4388V28.4388ZM37.4563 16.2388C37.3886 16.171 37.3886 16.171 37.3886 16.171C37.3886 16.171 37.4563 16.171 37.4563 16.1033C37.4563 16.1033 37.5241 16.171 37.4563 16.2388C37.5241 16.2388 37.5241 16.2388 37.4563 16.2388ZM39.4897 17.3233C39.5574 17.3233 39.5574 17.2555 39.6252 17.2555C39.4219 17.5266 39.1508 17.7299 38.8797 17.9333C39.083 17.7299 39.2863 17.5266 39.4897 17.3233ZM15.3608 30.2688C15.3608 30.3366 15.4286 30.4044 15.4286 30.4722L15.4963 30.5399C15.3608 30.4044 15.1574 30.2688 15.0219 30.1333C15.1574 30.1333 15.2252 30.201 15.3608 30.2688ZM34.2708 12.8499C33.9997 12.7822 33.7963 12.7144 33.593 12.7144C33.8641 12.7144 34.0674 12.7822 34.2708 12.8499ZM13.3952 37.3855C13.463 37.3855 13.463 37.4533 13.3952 37.3855V37.3855Z" fill="white"/>
</svg>
