<svg width="25" height="27" viewBox="0 0 25 27" fill="none" xmlns="http://www.w3.org/2000/svg">
<path d="M4.02534 18.3542L6.73144 16.878L2.13717 8.45633L15.0233 1.42654L24.7861 19.3226L11.9 26.3523L7.30572 17.9307L4.59962 19.4069C4.68647 20.1792 4.14301 21.022 3.36984 21.4438C2.33895 22.0062 1.03492 21.7614 0.575495 20.9192C0.116069 20.0771 0.616102 18.8481 1.64699 18.2857C2.54903 17.7936 3.42305 17.8632 4.02534 18.3542ZM8.59433 17.2277L12.6143 24.5967L22.9232 18.9728L14.309 3.18223L4.00007 8.80606L8.59433 17.2277ZM16.3401 25.2961L22.7832 21.7812L23.3575 22.8339L16.9144 26.3488L16.3401 25.2961ZM4.85445 4.24198L11.2975 0.727088L11.8718 1.77979L5.42873 5.29469L4.85445 4.24198ZM16.7603 16.8709C17.1048 17.5026 16.8191 18.2048 16.0459 18.6266C15.2728 19.0484 14.5276 18.9085 14.183 18.2769C13.8385 17.6453 14.1242 16.943 14.8974 16.5212C15.6705 16.0994 16.4157 16.2393 16.7603 16.8709ZM12.7403 9.50199C13.0849 10.1336 12.7991 10.8359 12.026 11.2577C11.2528 11.6795 10.5076 11.5396 10.1631 10.908C9.81848 10.2763 10.1042 9.57405 10.8774 9.15226C11.6506 8.73048 12.3957 8.87037 12.7403 9.50199Z" fill="#FF4A41"/>
</svg>
