<svg width="29" height="29" viewBox="0 0 29 29" fill="none" xmlns="http://www.w3.org/2000/svg">
<g clip-path="url(#clip0_994_13)">
<rect width="19.9809" height="19.9809" transform="translate(0.597656 11.7285) rotate(-33.0153)" fill="white"/>
<path d="M9.65444 7.33189C10.6422 6.69005 11.7259 6.26031 12.8763 6.05477C13.987 5.85634 15.112 5.87662 16.2225 6.11095C17.3314 6.34634 18.3686 6.78645 19.303 7.41901C20.2695 8.07251 21.0852 8.90545 21.7281 9.89485C22.371 10.8843 22.7997 11.9663 23.0052 13.1167C23.2037 14.2274 23.1834 15.3524 22.9491 16.4629C22.7137 17.5718 22.2736 18.609 21.641 19.5434C20.9859 20.511 20.1529 21.3267 19.1652 21.9685C18.1774 22.6104 17.0937 23.0401 15.9433 23.2457C14.8326 23.4441 13.7076 23.4238 12.5971 23.1895C11.4882 22.9541 10.451 22.514 9.51663 21.8814C8.549 21.2263 7.73331 20.3933 7.09147 19.4056C6.44963 18.4178 6.01989 17.3341 5.81436 16.1838C5.61592 15.073 5.6362 13.9481 5.87053 12.8375C6.10486 11.727 6.54604 10.6914 7.1786 9.75705C7.83373 8.78942 8.66667 7.97373 9.65444 7.33189ZM8.97434 6.28525C4.35439 9.28723 3.04284 15.4657 6.04483 20.0857C9.04682 24.7056 15.2253 26.0172 19.8453 23.0152C24.4652 20.0132 25.7768 13.8347 22.7748 9.21476C19.7728 4.59481 13.5943 3.28326 8.97434 6.28525Z" fill="#FF4A41"/>
<path d="M8.25241 16.6277C8.45533 16.94 8.77399 17.1588 9.1383 17.2362C9.5026 17.3135 9.88271 17.243 10.195 17.04C10.5073 16.8371 10.7262 16.5185 10.8035 16.1541C10.8808 15.7898 10.8103 15.4097 10.6074 15.0975C10.5069 14.9428 10.3769 14.8095 10.2249 14.7051C10.0729 14.6007 9.90186 14.5272 9.72147 14.4889C9.54109 14.4507 9.35493 14.4483 9.17362 14.4819C8.99231 14.5156 8.81941 14.5846 8.66478 14.6851C8.51015 14.7856 8.37683 14.9155 8.27242 15.0675C8.16801 15.2195 8.09457 15.3906 8.05627 15.571C8.01798 15.7514 8.01559 15.9375 8.04925 16.1188C8.0829 16.3001 8.15194 16.473 8.25241 16.6277Z" fill="#FF4A41"/>
<path d="M16.3637 11.3572C16.5667 11.6694 16.8853 11.8883 17.2496 11.9657C17.6139 12.043 17.994 11.9724 18.3063 11.7695C18.6186 11.5666 18.8375 11.2479 18.9148 10.8836C18.9922 10.5193 18.9216 10.1392 18.7187 9.82694C18.5158 9.51466 18.1971 9.29577 17.8328 9.21844C17.4685 9.14111 17.0884 9.21166 16.7761 9.41458C16.4638 9.6175 16.2449 9.93616 16.1676 10.3005C16.0903 10.6648 16.1608 11.0449 16.3637 11.3572Z" fill="#FF4A41"/>
<path d="M17.9911 20.1615C17.0884 20.7481 16.022 21.0363 14.9097 20.9961C14.0733 20.9652 13.4477 20.7577 13.2764 20.6945C12.9532 20.5766 12.787 20.2171 12.905 19.8939C13.0229 19.5707 13.3824 19.4045 13.7056 19.5225C13.9006 19.5935 15.6577 20.1892 17.311 19.1149C17.4844 19.0022 19.0168 17.953 19.1482 15.986C19.1717 15.6427 19.4696 15.3817 19.8128 15.4052C20.156 15.4288 20.4171 15.7267 20.3935 16.0699C20.3219 17.1445 19.9122 18.1712 19.2112 19.0361C18.6853 19.6871 18.1448 20.0616 17.9911 20.1615Z" fill="#FF4A41"/>
</g>
<defs>
<clipPath id="clip0_994_13">
<rect width="19.9809" height="19.9809" fill="white" transform="translate(0.597656 11.7285) rotate(-33.0153)"/>
</clipPath>
</defs>
</svg>
