<svg width="33" height="30" viewBox="0 0 33 30" fill="none" xmlns="http://www.w3.org/2000/svg">
<g clip-path="url(#clip0_995_24)">
<path d="M16.7262 9.82739L17.5086 11.2807L16.9584 13.1256L18.8013 13.6821L19.5837 15.1354L16.6238 14.2472L16.6234 14.2484L15.5008 13.9102L15.8366 12.7868L15.8378 12.7872L16.7262 9.82739ZM22.0318 11.1695L16.845 13.9617L16.198 12.7597L21.3847 9.96752L22.0318 11.1695ZM6.87036 21.198L10.8179 19.0729C11.4465 18.7345 11.681 17.949 11.3416 17.3185L10.2933 15.3712C9.95388 14.7407 9.16911 14.5039 8.54046 14.8424L4.59293 16.9675C3.96431 17.3059 3.72985 18.0913 4.06928 18.7219L5.11753 20.6691C5.45696 21.2996 6.24174 21.5364 6.87036 21.198ZM4.93589 18.8284C4.66489 18.325 4.85208 17.6979 5.35398 17.4277L8.50562 15.7311C9.00753 15.4609 9.63408 15.6499 9.90507 16.1533L10.5241 17.3031C10.7951 17.8065 10.6079 18.4337 10.106 18.7038L6.95433 20.4005C6.45242 20.6707 5.82587 20.4816 5.55488 19.9782L4.93589 18.8284ZM9.52365 17.1279C9.43739 16.9677 9.29121 16.8482 9.11727 16.7957C8.94332 16.7432 8.75585 16.762 8.59611 16.848C8.43636 16.934 8.31742 17.0802 8.26546 17.2543C8.21349 17.4284 8.23275 17.6162 8.31901 17.7764C8.40526 17.9366 8.55144 18.0561 8.72538 18.1086C8.89933 18.1611 9.0868 18.1423 9.24654 18.0563C9.40629 17.9703 9.52523 17.8242 9.57719 17.6501C9.62916 17.476 9.6099 17.2881 9.52365 17.1279ZM16.1952 26.3341L23.728 18.4893L23.3282 17.7468L22.6344 18.1203L16.1648 24.858L13.9976 22.7698L13.0343 23.2884L16.1952 26.3341ZM15.667 7.3796C16.1916 7.0972 16.8465 7.2948 17.1297 7.82095L17.5553 8.61138L18.0039 8.36985L17.4379 7.3184C17.0985 6.68788 16.3137 6.45109 15.6851 6.78948L13.5038 7.96371L13.7461 8.4137L15.667 7.3796ZM4.3154 14.1844C3.72894 13.095 4.00062 11.9271 5.08675 11.3424L15.4511 5.73609C16.5372 5.15139 17.7631 5.5378 18.3495 6.62719L19.5382 8.82841L19.5472 8.83113L19.9474 9.57386L20.8975 9.06238L19.8237 7.06772L19.0602 5.64935C18.3813 4.38833 16.8117 3.91479 15.5544 4.59164L4.1719 10.7193C2.91461 11.3961 2.44575 12.967 3.1246 14.228L4.59788 16.9648L5.53147 16.4622L4.3154 14.1844ZM11.8542 24.9898L23.2368 18.8622C24.4941 18.1853 24.963 16.6144 24.2842 15.3533L22.4468 11.9403L21.4979 12.4512L23.1452 15.5083C23.7317 16.5977 23.3786 17.7257 22.2924 18.3105L11.8177 23.9494C10.7316 24.5341 9.66794 24.1046 9.08147 23.0152L7.80895 20.6927L6.87538 21.1953L8.34863 23.932C9.02746 25.193 10.597 25.6666 11.8542 24.9898Z" fill="#FF4A41"/>
</g>
<defs>
<clipPath id="clip0_995_24">
<rect width="25.239" height="19.4551" fill="white" transform="translate(32.1699 17.7344) rotate(151.705)"/>
</clipPath>
</defs>
</svg>
