<?xml version="1.0" standalone="no"?><!DOCTYPE svg PUBLIC "-//W3C//DTD SVG 1.1//EN" "http://www.w3.org/Graphics/SVG/1.1/DTD/svg11.dtd"><svg t="1723115892467" class="icon" viewBox="0 0 1332 1024" version="1.1" xmlns="http://www.w3.org/2000/svg" p-id="5902" xmlns:xlink="http://www.w3.org/1999/xlink" width="260.15625" height="200"><path d="M519.875831 751.761931 519.875831 664.886045 591.594298 593.114614 519.875831 521.343182 519.875831 434.468501 635.199559 549.47926 635.248912 549.43111 678.954085 593.114614 635.248912 636.802933 635.199559 636.752376ZM306.899187 557.191582l310.877528 0 0 71.848471-310.877528 0 0-71.848471ZM1262.322065 470.685244 1025.719735 470.685244c-37.678075 0-68.224028 30.553174-68.224028 68.243287l0 116.397459c0 37.690113 30.544748 68.243287 68.224028 68.243287l236.602329 0c37.678075 0 68.222824-30.553174 68.222824-68.243287l0-116.397459C1330.544888 501.238418 1300.00014 470.685244 1262.322065 470.685244zM1292.939037 628.766805c0 30.09094-24.386445 54.484609-54.46896 54.484609L1049.570519 683.251414c-30.082514 0-54.46896-24.393668-54.46896-54.484609l0-68.732003c0-30.09094 24.38765-54.484609 54.46896-54.484609l188.899558 0c30.082514 0 54.46896 24.393668 54.46896 54.484609L1292.939037 628.766805zM1037.206968 593.115817a29.991 30 0 1 0 72.202368 0 29.991 30 0 1 0-72.202368 0ZM957.486077 0 411.193102 175.632002 411.193102 220.019691 452.778497 220.019691 921.973519 69.173774 970.443069 220.019691 1028.181371 220.019691ZM507.860159 891.630998c-31.44153 0-56.9318-25.497492-56.9318-56.948652L450.928358 787.433382l-26.891416 0 0 62.851764c0 37.690113 30.545952 68.244491 68.22162 68.244491l130.736338 0 0-26.898639L507.860159 891.630998zM1205.597307 859.47445c0 65.120802-41.841791 112.469676-106.940926 112.469676l-621.875428 1.243458c-65.099134 0-112.39986-48.493625-112.39986-113.613222l-0.17093-131.672843-0.349083-0.350287-0.018056-44.406948-56.946245 0 0 119.233456 0 84.784999c0 75.379022 61.091905 136.485371 136.450463 136.485371l682.233055 0c75.358558 0 136.444444-61.106349 136.444444-136.485371L1262.024742 723.570483l-55.955571-0.001204L1205.597307 859.47445zM1125.580298 170.607617 443.347242 170.607617c-75.358558 0-136.450463 61.107553-136.450463 136.486575l0 204.016048 56.875224 0-0.073428-182.782182c0-65.120802 44.627231-108.591245 109.732384-108.591245l627.821874 0c65.099134 0 103.779921 46.442462 103.779921 111.563264l1.034008 139.383963 55.955571 0L1262.022335 307.095396C1262.023538 231.716373 1200.937653 170.607617 1125.580298 170.607617z" fill="#ff4a41" p-id="5903"></path></svg>